<?xml version="1.0" standalone="no"?>
<!DOCTYPE svg PUBLIC "-//W3C//DTD SVG 1.1//EN" "http://www.w3.org/Graphics/SVG/1.1/DTD/svg11.dtd" >
<svg xmlns="http://www.w3.org/2000/svg">
<metadata></metadata>
<defs>
<font id="p22_corinthiaregular" horiz-adv-x="466" >
<font-face units-per-em="2048" ascent="1638" descent="-410" />
<missing-glyph horiz-adv-x="301" />
<glyph horiz-adv-x="0" />
<glyph unicode="&#xd;" horiz-adv-x="301" />
<glyph unicode=" "  horiz-adv-x="301" />
<glyph unicode="&#x09;" horiz-adv-x="301" />
<glyph unicode="&#xa0;" horiz-adv-x="301" />
<glyph unicode="!" horiz-adv-x="512" d="M119 16q0 49 53 50q51 -1 51 -50t-51 -49q-53 0 -53 49zM242 213q0 35 178 381q166 322 217 403q2 4 6 4q12 0 41 -20.5t29 -30.5l-13 -18l-55 -86q-221 -348 -319 -539q-12 -27 -39 -82q-12 -27 -31 -26q-14 0 -14 14z" />
<glyph unicode="&#x22;" horiz-adv-x="319" d="M111 858q43 6 61 6q4 0 6 -2v-4q0 -27 -15.5 -121t-23.5 -110q-4 -8 -12 -9q-6 0 -6 17q0 139 -10 223zM252 858q43 6 61 6q4 0 6 -2v-4q0 -27 -15 -121t-23 -110q-4 -8 -13 -9q-6 0 -6 17q0 139 -10 223z" />
<glyph unicode="#" horiz-adv-x="1298" d="M4 274q0 10 6 15q92 57 342 88q55 156 135 317q-61 -4 -197 -45t-184 -41q-12 0 -12 21q0 10 6 14q111 68 410 96q145 281 199 312q6 4 18 4q49 0 49 -27q-84 -131 -180 -283q145 8 297 5q139 270 192 301q6 4 19 4q49 0 49 -27q-84 -131 -180 -283q233 -14 291 -40 q24 -13 24 -52q0 -25 -16 -24q4 0 -107 16q-123 18 -233 31q-88 -150 -146 -281q309 -8 390 -45q25 -12 24 -51q0 -25 -18 -25q10 0 -141.5 22.5t-282.5 33.5q-80 -201 -80 -369q0 -10 -14 -10q-23 0 -23 35q0 135 74 348q-113 8 -211 8q-63 0 -119 -4q-84 -207 -84 -377 q0 -10 -14 -10q-23 0 -23 35q0 135 74 348q-47 -4 -165 -42t-157 -38q-12 0 -12 20zM403 383q156 16 332 12q53 142 125 289q-152 12 -266 12h-29q-98 -170 -162 -313z" />
<glyph unicode="$" horiz-adv-x="745" d="M162 307q0 4 2 4q6 -4 12 -16q43 -66 131 -72q41 150 111 316q-162 98 -162 188q0 92 147 166q123 59 232 63q55 90 72 91q25 0 24 -23q0 -6 -45 -74q80 -16 78 -100q14 8 29 16q16 0 16 -12q0 -18 -18 -37q-37 -33 -109 -108q-25 -35 -41 -35q-12 0 -12 14q0 10 53 79 t53 103q0 43 -69 52q-127 -197 -211 -375q82 -61 102 -84q61 -57 61 -111q0 -76 -88 -127q-76 -45 -157 -45q-29 0 -54 4q-14 -51 -22 -100q0 -16 -6 -47q-4 -12 -15 -12q-8 0 -8 12q0 31 31 151q-100 20 -133 101q-4 12 -4 18zM307 737q0 -78 123 -172q82 187 184 357 q-96 -4 -188 -50q-119 -55 -119 -135zM330 221h12q80 0 154 33q92 43 92 113q0 68 -146 155q-74 -158 -112 -301z" />
<glyph unicode="%" horiz-adv-x="761" d="M39 8q0 8 22 62q113 276 486 714q-29 -10 -58 -10q-35 0 -63 17q-78 -123 -164 -123q-59 0 -59 67q0 98 86 230q-2 18 -2 39q0 61 41 119.5t100 58.5q39 0 61 -49q20 -39 21 -80q0 -92 -72 -234q25 -16 58 -16q57 0 96 35q16 18 47 51q70 80 201 201q12 8 26 8 q41 0 41 -25q0 -4 -4 -10q-51 -49 -149 -150q-494 -500 -639 -800q-12 -25 -41 -109q-4 -10 -19 -10q-16 0 -16 14zM264 741q0 -33 27 -32q25 0 63 39q33 34 47 63q-55 37 -86 86q-51 -109 -51 -156zM272 41q0 96 86 229q-4 18 -4 37q0 61 41 119.5t103 58.5q37 0 61 -47 q19 -39 19 -82q0 -92 -70 -233q16 -10 16 -17q0 -10 -28 -10q-80 -125 -164 -125q-59 0 -60 70zM324 1012q31 33 55 32q27 0 37 -16q0 -4 2 -9t2 -9q0 -6 -19 -6q-31 0 -63 -66q23 -63 78 -104q43 106 43 176q0 37 -13 77q-16 53 -45 54q-39 0 -61 -47q-16 -39 -16 -82z M334 45q0 -33 26 -33q25 0 64 39q33 35 47 64q-57 37 -86 86q-51 -106 -51 -156zM393 315q29 33 56 33t36 -16q0 -2 2 -8v-11q0 -4 -16 -4q-31 0 -65 -65q23 -66 79 -107q41 108 41 178q0 37 -12 76q-16 53 -43 53q-39 0 -61 -47q-16 -37 -17 -82z" />
<glyph unicode="&#x26;" horiz-adv-x="1122" d="M14 164q0 160 166 280q100 74 309 154q-186 12 -186 100q0 131 201 217q160 72 313 72q82 0 148 -29q86 -35 86 -106q0 -29 -11 -51q-16 -31 -53 -31q-8 0 -8 10q0 4 10 27.5t10 42.5q0 55 -77 82q-55 18 -127 18q-129 0 -265 -61q-162 -76 -161 -191q0 -68 123 -67 q37 0 104.5 13t89.5 13q29 0 29 -16q0 -14 -39 -25.5t-121 -35.5q-477 -150 -477 -410q0 -96 84 -147q70 -45 172 -46q195 0 379 91q225 109 225 280q0 41 -14 84q-86 -16 -172 -33q-111 -25 -168 -63q-76 -51 -76 -141q0 -12 -8 -13q-16 0 -17 17q0 156 119 217 q55 27 248 57q164 27 221 86q18 18 19 33q0 14 -17.5 25.5t-17.5 17.5q0 10 8 10q20 0 37.5 -25.5t17.5 -48.5q0 -80 -164 -129q25 -61 25 -118q0 -184 -242 -297q-193 -90 -403 -90q-127 0 -213 49q-106 59 -107 178z" />
<glyph unicode="'" horiz-adv-x="176" d="M111 858q43 6 61 6q4 0 6 -2v-4q0 -27 -15.5 -121t-23.5 -110q-4 -8 -12 -9q-6 0 -6 17q0 139 -10 223z" />
<glyph unicode="(" horiz-adv-x="651" d="M78 174q0 287 149 502q129 188 391 352q72 43 101 43q24 1 22 -24q-238 -98 -417 -353q-184 -260 -185 -512q0 -250 37 -309q8 -12 8 -20q0 -12 -12 -13q-45 0 -74 148q-20 106 -20 186z" />
<glyph unicode=")" horiz-adv-x="757" d="M16 -143q233 96 416 350q190 258 191 504q0 256 -41 321q-6 12 -7 21q0 12 13 12q45 0 71 -147q21 -107 21 -185q0 -287 -148 -504q-129 -188 -393 -352q-70 -43 -100 -43q-23 0 -23 23z" />
<glyph unicode="*" horiz-adv-x="1226" d="M125 555q0 12 14 12q117 0 434 6q-299 309 -299 338q0 4 9 4q2 0 340 -327q8 432 22 465q4 8 6 8q12 0 13 -14q0 -123 6 -447q305 297 334 297q4 0 4 -8q0 -4 -299 -314q55 2 202 11q131 6 205 6q10 0 25.5 -18.5t15.5 -30.5v-2q-27 -16 -469 -15q72 -63 213 -192 q31 -29 64 -55q41 -41 41 -64q0 -45 -13 -45q-23 0 -321 303q0 -55 8 -203q6 -127 6 -200q0 -10 -18.5 -25.5t-28.5 -15.5h-4q-16 27 -12 458q-66 -74 -197 -217q-27 -31 -55 -63q-39 -41 -64 -41q-43 0 -43 12q0 25 330 350q-428 6 -461 21q-8 4 -8 6z" />
<glyph unicode="+" horiz-adv-x="925" d="M125 627l10 10q84 10 314 8q-2 39 -7 141q-6 88 -6 142q0 12 15.5 24.5t29.5 12.5l11 -11q10 -82 8 -309q143 -2 315 -14q12 -7 12 -13v-8l-18 -12q-84 0 -309 -2q-4 -279 -15 -301q-6 -12 -16 -12q-4 0 -8 16q-12 43 -12 188v48v53v6q-39 0 -142 -6q-90 -4 -143 -4 q-12 0 -24.5 14t-14.5 29z" />
<glyph unicode="," horiz-adv-x="393" d="M139 -176q0 8 14.5 22.5t102.5 143.5h-6q-31 -2 -31 45q0 55 66 55q45 0 45 -49q0 -43 -75 -131t-112 -88q-4 0 -4 2z" />
<glyph unicode="-" d="M39 221q0 29 72 51q33 12 92 13q72 0 190 -17q53 -8 53 -20q0 -14 -53 -17q-37 -2 -110 -6q-61 -8 -193 -18h-10q-41 -2 -41 14z" />
<glyph unicode="." horiz-adv-x="378" d="M223 16q0 49 56 50q51 -1 51 -50t-51 -49q-55 0 -56 49z" />
<glyph unicode="/" horiz-adv-x="606" d="M78 -35q0 16 37 96q162 352 592 818q53 59 170 168q12 8 28 8q41 0 41 -25q0 -4 -4 -10q-51 -49 -151 -150q-494 -500 -637 -800q-12 -25 -43 -109q-4 -10 -17 -10q-16 0 -16 14z" />
<glyph unicode="0" horiz-adv-x="1007" d="M10 209q0 193 172 340q90 74 247 136.5t267 62.5q53 0 54 -11q0 -6 -17 -8q-307 -31 -477 -180q-80 -74 -135 -172q-61 -109 -62 -207q0 -195 238 -195q233 0 483 226q68 61 115 141q57 94 57 170q0 133 -174 133q-227 0 -416 -162q-2 -4 -8 -4q-8 0 -8 8q0 29 111 91 q162 92 309 92q235 -1 235 -183q0 -152 -157 -299q-106 -100 -254 -165q-158 -72 -293 -72q-121 0 -201 67q-86 74 -86 191z" />
<glyph unicode="1" horiz-adv-x="450" d="M49 -55q0 4 2 10l152 324q88 190 137 327q-10 0 -26.5 -12t-24.5 -12t-8 10t14 24q49 47 147 138q4 2 11 2q12 0 27.5 -11.5t15.5 -23.5l-2 -4q-53 -72 -146 -236q-117 -207 -207 -403q-18 -47 -59 -139q-4 -6 -19 -7q-14 0 -14 13z" />
<glyph unicode="2" horiz-adv-x="696" d="M-10 20q0 23 94 56q72 27 160 80q139 84 286 215q203 178 203 272q0 82 -80 82q-137 0 -356 -266q-6 -8 -14 -8q-10 0 -11 12v4q14 72 115 164q94 86 170 104q49 10 90 10q129 1 129 -116q0 -76 -61 -150q-35 -41 -123 -114q-12 -10 -205 -140q-166 -113 -170 -131h57 q39 2 60 2q135 0 184 -39q10 -8 10 -16q0 -6 -6 -6q-4 0 -14 4q-68 35 -131 35q-106 0 -266 -56q-104 -35 -101 -34q-20 0 -20 36z" />
<glyph unicode="3" horiz-adv-x="696" d="M-6 135q0 35 18 35q12 0 13 -10q0 -193 159 -193q135 0 243 102.5t108 237.5q0 131 -117 131q-10 0 -35 -9t-37 -9q-16 0 -16 14q0 31 45 31q6 0 18 -2h21q51 0 131 64.5t80 113.5q0 51 -68 51t-124 -39t-52 -39q-6 0 -6 9q0 6 8 16q29 35 96.5 62.5t116.5 27.5 q35 0 63.5 -21.5t28.5 -56.5q0 -88 -217 -196q119 -72 119 -181q0 -129 -135 -235q-127 -98 -260 -98q-152 0 -185 100q-16 53 -16 94z" />
<glyph unicode="4" horiz-adv-x="677" d="M25 283q0 12 45 43q31 18 61 39q137 96 275 192q156 117 243 229q27 0 27 -55v-33q-23 -25 -120 -179t-97 -171q0 -8 64.5 -17t64.5 -26q0 -12 -13 -12q-16 0 -51 7t-53 7q-20 0 -37 -2q-70 -123 -178 -364q-14 2 -14 24q0 27 63 162q74 160 80 178q-2 4 -14 4 q-61 0 -182 -23.5t-148 -23.5q-16 0 -16 21zM174 354q80 -6 227 -6q14 0 93 146q57 110 88 178q-92 -80 -187 -150q-76 -53 -221 -168z" />
<glyph unicode="5" horiz-adv-x="675" d="M10 127q0 12 15.5 54t23.5 42q12 0 12 -12q0 -2 -11 -27.5t-11 -46.5q0 -147 147 -147q78 0 149 40t132 134t61 172q0 74 -31.5 101.5t-105.5 27.5q-72 0 -174 -90q-12 -14 -35 -35q-8 -6 -16 -6q-29 0 -29 24q0 6 65.5 106.5t76.5 135.5q-29 18 -29 25q63 51 67 51 q8 0 27 -2h27q47 0 140 11t140 11t84 -8v-16q-131 -6 -151 -8q-86 -6 -150 -21q-20 -6 -61 -18q-10 0 -33 -11q-31 -23 -92 -149q80 35 162 35q182 0 182 -150q0 -137 -129 -266t-266 -129q-76 0 -131.5 49t-55.5 123z" />
<glyph unicode="6" horiz-adv-x="604" d="M37 164q0 160 174 364q156 184 319 267q16 6 25 6q4 0 4 -2q0 -12 -27 -33q-37 -27 -110 -82q-129 -111 -221 -244q-111 -166 -111 -303q0 -162 119 -162q106 0 196.5 113t90.5 221q0 117 -101 117q-51 0 -104 -37t-62 -37q-6 4 -6 8q0 27 70 64q63 35 92 35 q72 0 119 -52.5t47 -123.5q0 -115 -120 -224.5t-234 -109.5q-78 0 -121 71q-39 61 -39 144z" />
<glyph unicode="7" horiz-adv-x="610" d="M49 35q0 47 72 139q41 55 122 146.5t163 185.5q133 156 133 190q0 18 -41 19q-59 0 -160 -35q-90 -33 -150 -68q-16 -14 -30 -26q-20 -16 -37 -17q-18 0 -19 27q0 53 56 76q182 74 344 73q29 0 65.5 -22t36.5 -49q0 -45 -260 -307q-221 -223 -250 -402q-8 -2 -12 -2 q-12 0 -23 31q-10 25 -10 41z" />
<glyph unicode="8" horiz-adv-x="634" d="M-33 88q0 86 105 191q16 18 174 151q-33 68 -33 125q0 90 82 152q76 57 168 57q47 0 94 -19q57 -20 78 -55q150 88 178 88q4 0 4 -2q0 -8 -72.5 -54t-95.5 -56q27 -61 27 -91q0 -18 -10 -18q-12 0 -62 80q-20 -2 -155.5 -99.5t-137.5 -111.5q49 -86 49 -156 q0 -111 -86 -203t-196 -92q-111 0 -111 113zM16 74q0 -76 70 -76q84 0 156.5 81t72.5 165q0 49 -57 147q-70 -41 -149 -141q-92 -111 -93 -176zM260 582q0 -39 37 -119q74 55 295 205q-33 70 -135 69q-74 0 -131 -41q-66 -45 -66 -114z" />
<glyph unicode="9" horiz-adv-x="626" d="M45 391q0 127 166 264q160 133 291 133q125 0 125 -96q0 -76 -41 -98q-8 8 -8 12q0 10 9 41t9 47q0 72 -92 72q-115 0 -260.5 -138.5t-145.5 -250.5q0 -70 64 -70q43 0 117 33q66 31 106 66q45 49 139 145q4 4 11 4q10 0 25 -14.5t15 -24.5q0 -6 -98 -160 q-180 -285 -203 -405q-6 -47 -20 -47q-8 0 -8 18q0 127 182 492q-57 -49 -135 -90q-92 -45 -154 -45q-94 0 -94 112z" />
<glyph unicode=":" horiz-adv-x="294" d="M127 49q0 49 55 49q51 0 51 -49t-51 -49q-55 0 -55 49zM244 272q0 49 51 50q51 -1 51 -50t-51 -49t-51 49z" />
<glyph unicode=";" horiz-adv-x="284" d="M41 -176q0 8 14.5 22.5t102.5 143.5h-6q-31 -2 -31 45q0 55 65 55q45 0 45 -49q0 -43 -74.5 -131t-111.5 -88q-2 0 -4 2zM287 311q0 49 53 49t53 -49q0 -51 -53 -51t-53 51z" />
<glyph unicode="&#x3c;" horiz-adv-x="651" d="M174 524q0 23 107 176q94 133 135 183q18 23 39 22q14 0 14 -12q0 -31 -203 -313q199 -252 199 -275q0 -29 -21 -26l-16 8q-45 61 -117 121q-66 53 -131 104q-6 4 -6 12z" />
<glyph unicode="=" d="M39 221q0 29 72 51q33 12 92 13q72 0 190 -17q53 -8 53 -20q0 -14 -53 -17q-37 -2 -110 -6q-61 -8 -193 -18h-10q-41 -2 -41 14zM76 379q0 27 71 51q33 10 93 10q72 0 190 -14q53 -8 53 -20q0 -16 -53 -17l-111 -6q-61 -8 -192 -18l-10 -3q-41 0 -41 17z" />
<glyph unicode="&#x3e;" horiz-adv-x="651" d="M174 276q0 31 203 314q-201 254 -201 274q0 29 23 27l16 -8q45 -61 113.5 -117.5t134.5 -108.5q6 -4 6 -12q0 -23 -109 -176q-92 -133 -135 -182q-18 -23 -39 -23q-12 0 -12 12z" />
<glyph unicode="?" horiz-adv-x="870" d="M295 16q0 49 53 50q53 -1 53 -50t-53 -49t-53 49zM297 707q0 8 12 28q18 29 78 78q209 178 397 178q51 0 96.5 -34t45.5 -85q0 -104 -131 -223q-123 -96 -248 -192q-131 -109 -131 -195q0 -16 12 -20q-2 -35 -25 -35q-37 0 -36 49q0 86 129 215q119 111 237 221 q129 123 129 195q0 63 -65 63q-125 0 -258 -73q-119 -66 -211 -168q-10 -10 -23 -11q-8 0 -8 9z" />
<glyph unicode="@" horiz-adv-x="1120" d="M55 385q0 154 131 305q117 135 273 203q102 43 209 43q135 0 225 -68q100 -74 100 -204q0 -49 -16 -107q-29 -100 -119 -195q-100 -106 -194 -106q-113 0 -113 147q0 27 4 56q-113 -203 -203 -203q-53 0 -53 59q0 86 85 213t167 154q31 10 57 10q23 0 57.5 -15t34.5 -38 q-10 -4 -28 -16q-18 -25 -35 -103q-14 -70 -14 -110q0 -109 67 -109q27 0 68 21q84 45 146.5 148t62.5 200q0 104 -90 157q-74 43 -187 43q-125 0 -231 -47q-158 -72 -258 -180q-121 -131 -121 -281q0 -145 127 -223q109 -66 262 -65q143 0 258 53q213 100 315 389 q6 14 11 14q8 0 8 -16q0 -111 -125 -264q-115 -141 -225 -197q-98 -47 -215 -47q-178 0 -306 98q-135 106 -135 281zM358 344q0 -35 25 -35q53 0 137 135q61 99 98 193q-6 2 -14 2q-74 0 -160 -109.5t-86 -185.5z" />
<glyph unicode="A" horiz-adv-x="1536" d="M29 84q0 119 100 219q90 90 213 123q198 55 623 55h30q133 156 269 330q37 53 114 154q8 10 19 10q27 0 26 -25q0 -6 -4 -14q-12 -18 -127 -170q-133 -178 -217 -287q102 -6 201 -28q57 260 147 487q25 63 82 180q8 14 55.5 43t63.5 29q18 -1 18 -19q0 -6 -10 -22 q-174 -291 -289 -717q92 -29 93 -53q0 -20 -23 -21q-2 0 -37 13.5t-45 15.5q-59 -246 -59 -389q0 -70 20 -70q18 0 50 26t38 26q18 0 19 -23q0 -23 -40 -46.5t-67 -23.5q-78 0 -78 129q0 131 52 383q-104 14 -242 17q-61 -76 -162 -185q-164 -176 -252 -241 q-158 -115 -323 -115q-111 0 -178 49q-80 53 -80 160zM84 88q0 -68 57 -102q47 -31 121 -31q156 0 305 102q96 66 244 222q61 61 127 137h-57q-352 0 -533 -47q-102 -29 -178 -101q-86 -82 -86 -180z" />
<glyph unicode="B" horiz-adv-x="1290" d="M2 113q0 137 131 225q111 74 256 82q88 203 191 393q33 63 106 180q33 45 105 45q29 0 28 -16q0 -6 -4 -12q-193 -260 -356 -590q461 -10 686 -207q66 86 65 162q0 129 -174 203q-135 55 -286 55h-22.5h-25.5q-27 0 -26 18q0 37 59 47q33 4 99 15q248 51 362 157 q47 45 47 78q0 74 -190 111q-124 24 -256 24h-11q-369 0 -688 -133q-10 -4 -16 -4q-16 0 -16 17q0 25 27.5 54.5t51.5 39.5q213 86 543 86q197 0 365 -37q262 -55 262 -176q0 -98 -160 -178q-119 -61 -248 -82q147 -35 250 -97q143 -88 143 -206q0 -96 -100 -211 q59 -72 60 -105q0 -29 -23 -28q-10 0 -16 10q-31 55 -58 84q-133 -123 -348 -189q-188 -55 -393 -55q-137 0 -260 53q-160 68 -160 187zM92 109q0 -94 125 -148q98 -43 205 -43q455 0 686 250q-115 96 -289 151q-166 51 -325 52q-31 0 -60 -2q-123 -262 -123 -351 q0 -6 2 -16t2 -16q0 -27 -22 -27q-33 0 -33 55q0 92 105 346q-272 -45 -273 -251z" />
<glyph unicode="C" horiz-adv-x="1056" d="M-10 178q0 168 137 367q162 236 420 391q276 170 545 170q231 0 231 -160q0 -139 -154 -256q-142 -112 -285 -112h-3q-150 0 -150 114q0 82 37 82q14 0 14 -18q0 -6 -2 -18.5t-2 -18.5q0 -80 105 -80q109 0 246 104.5t137 206.5q0 100 -170 101q-35 0 -68 -4 q-176 -18 -401.5 -148.5t-374.5 -304.5q-166 -197 -166 -377q0 -113 76 -172q68 -53 184 -53q373 0 723 291q8 6 16 6q25 0 25 -27q0 -10 -8 -18q-150 -137 -354 -234q-225 -106 -408 -106q-150 0 -242 61q-109 72 -108 213z" />
<glyph unicode="D" horiz-adv-x="1536" d="M-43 113q0 137 129 225q113 74 258 82q92 215 201 411q33 63 96 162q35 45 104 45q29 0 29 -16q0 -6 -4 -12q-193 -260 -356 -590q551 -12 751 -277q135 94 221 217q100 143 101 287q0 231 -260 354q-201 92 -461 93q-346 0 -614 -152q-16 -8 -27 -8q-27 0 -27 31 q0 45 64 79q92 49 280 80q158 25 293 25q303 0 533 -107q299 -137 299 -405q0 -162 -113 -320q-96 -135 -250 -237q8 -18 8 -29q0 -29 -20 -28q-8 0 -29 32q-307 -184 -706 -184q-43 0 -82 2q-139 6 -258 57q-160 68 -160 183zM47 109q0 -92 125 -146q94 -41 205 -45h51 q389 0 692 195q-94 117 -311 190q-195 68 -367 68q-27 0 -53 -2q-123 -262 -123 -351q0 -6 2 -16t2 -16q0 -27 -22 -27q-33 0 -33 55q0 92 104 346q-272 -45 -272 -251z" />
<glyph unicode="E" horiz-adv-x="1202" d="M61 485q0 51 43 66q16 6 117 20q164 223 416 373q272 162 532 162q230 0 230 -160q0 -80 -66 -170q-59 -78 -137 -125q-14 -8 -27 -8q-35 0 -34 33q0 14 16 29q190 147 190 245q0 100 -170 101q-211 0 -469 -152q-231 -135 -380 -317q174 20 323 20q309 0 309 -57 q0 -27 -28 -27q-27 0 -101.5 11.5t-115.5 11.5q-190 0 -445 -37q-102 -154 -102 -285q0 -123 92 -186q80 -57 209 -58q313 0 684 308q8 6 14 6q27 0 27 -27q0 -10 -8 -18q-152 -137 -357 -234q-223 -106 -407 -106q-150 0 -242 61q-106 72 -106 213t100 311q-93 -17 -93 -18 h1q-14 0 -15 14z" />
<glyph unicode="F" horiz-adv-x="1294" d="M-20 688q0 96 112 164q246 147 600 147q129 0 398 -28q20 33 65 94q27 31 98 31q27 0 27 -11l-88 -124q197 -18 319 -19q129 0 177 23q16 8 24 8q19 -1 19 -21q0 -69 -256 -69h-7q-135 0 -319 18q-141 -207 -238 -416q66 4 228 29q147 23 223 23q18 0 18 -13 q0 -25 -34 -35q-16 -4 -127 -22q-174 -27 -332 -37q-129 -289 -129 -424q0 -74 43 -74q18 0 51 24t39 24q16 0 16 -19q0 -23 -42 -46.5t-66 -23.5q-94 0 -94 125q0 133 112 412q-45 -2 -90 -2q-512 0 -696 170q-51 47 -51 92zM72 678q0 -117 301 -166q178 -31 385 -31 q41 0 82 2q104 244 213 428q-170 14 -330 15q-651 0 -651 -248z" />
<glyph unicode="G" horiz-adv-x="1122" d="M-268 -305q0 338 651 604q-25 41 -25 72q0 236 291 454q233 176 508 258q6 37 31 37q37 0 59 -45q160 -14 160 -102q0 -27 -27.5 -66t-54.5 -39q-14 0 -14 15q0 2 14 32.5t14 53.5q0 57 -71 57q-8 0 -19 -2q-4 -53 -32 -195q-25 -127 -64 -301q25 2 47 2q104 0 105 -34 q0 -20 -33 -21q-10 0 -31.5 2t-34.5 2q-39 0 -67 -4q-172 -672 -688 -932q-193 -98 -416 -98q-303 0 -303 250zM-186 -279q0 -208 273 -208h3q182 0 346 69q444 193 608 875q-111 -29 -188 -51q-188 -184 -346 -185q-59 0 -96 37q-600 -240 -600 -537zM442 367q0 -23 9 -41 q172 66 376 125q121 113 211 264q101 170 119 315q-336 -96 -541 -319q-63 -72 -112 -160q-61 -109 -62 -184zM496 291q10 -2 22 -2q94 0 211 80q-125 -37 -233 -78zM924 477q63 16 135 33q14 70 41 209q-78 -131 -176 -242z" />
<glyph unicode="H" horiz-adv-x="1660" d="M-37 84q0 252 416 369q277 77 613 77h9q74 0 129 -4q106 264 107 392q0 79 -50 79h-1q-27 0 -68 -22.5t-45 -22.5q-12 0 -12 19q0 27 67 53q61 25 99 25q94 0 94 -134q0 -141 -98 -397q180 -25 278 -57q31 72 66 147q152 332 260 457q27 31 98 31q27 -1 27 -11 q0 -4 -4 -10q-256 -340 -387 -639q131 -63 131 -135q0 -16 -11.5 -34.5t-25.5 -18.5q-25 0 -25 24q0 6 6 14.5t6 16.5q0 41 -102 88q-110 -258 -110 -383q0 -76 43 -76q18 0 50.5 24t37.5 24q18 0 18 -19q0 -23 -42 -46.5t-69 -23.5q-94 0 -94 125q0 129 109 398 q-109 35 -285 53q-131 -246 -367 -440q-268 -223 -512 -224q-141 0 -241 68q-115 78 -115 213zM35 70q0 -106 94 -166q80 -51 190 -51q221 0 463 210q205 181 322 410q-47 4 -107 4q-309 0 -573 -74q-389 -109 -389 -333z" />
<glyph unicode="I" horiz-adv-x="935" d="M10 -37q0 16 21 25q14 6 125 35q166 41 315 63q23 172 172 481q135 281 262 457h-35h-39q-94 0 -165 -8q-256 -31 -256 -98q0 -29 57 -62t57 -45q0 -16 -20 -16q-6 0 -15 2q-163 78 -163 136q0 46 88 89q117 55 381 55q70 0 147 -4q25 35 100 35q31 0 31 -12 q0 -4 -20 -31q117 -8 235 -25q25 -2 72 -10q22 -6 22 -22t-22 -17l-6 2q-111 12 -336 29q-184 -233 -295 -442q-160 -303 -195 -486q104 12 189 12q186 0 225 -43q12 -14 12 -40q0 -35 -20 -35q-35 0 -122 19.5t-130 19.5q-74 0 -160 -9q2 -59 41 -59q18 0 51 22.5t39 22.5 q16 0 17 -18q0 -25 -42 -46.5t-69 -21.5q-82 0 -90 96q-53 -6 -227 -43q-154 -34 -204 -34h-3q-25 0 -25 26z" />
<glyph unicode="J" horiz-adv-x="1130" d="M-205 -449q0 100 72 220q123 209 358 329q225 115 477 115q86 0 175 -14q139 301 139 610q0 252 -225 252q-205 0 -459 -189q-270 -199 -271 -391q0 -131 123 -131q72 0 184.5 49.5t114.5 49.5q12 0 13 -15q0 -16 -21 -33q-125 -94 -278 -94q-193 0 -193 201 q0 227 287 420q262 176 504 176q303 0 303 -293q0 -336 -131 -631q66 -14 88 -22q61 -22 67 -51q-2 -14 -16 -15q-12 0 -39 15.5t-35 17.5q-20 6 -82 18q-250 -514 -776 -716q-115 -45 -201 -45q-178 0 -178 167zM-129 -430q0 -129 135 -129q59 0 146 31q217 82 411 280 q178 181 293 408q-66 8 -127 8q-238 0 -446 -100q-229 -109 -344 -299q-68 -113 -68 -199z" />
<glyph unicode="K" horiz-adv-x="1497" d="M-61 43q0 143 194 317q188 170 328 170q18 0 18 -14q0 -12 -28 -22q-231 -88 -367 -261q-82 -104 -82 -204q0 -129 148 -129q203 0 403 196q150 150 270 375q-96 137 -96 170q0 20 12.5 62t26.5 42q6 0 10 -10q45 -113 86 -184q102 246 103 403q0 98 -60 99 q-27 0 -67.5 -22.5t-42.5 -22.5q-14 0 -15 18q0 27 70 55q59 23 96 23q104 0 105 -150q0 -184 -121 -450q422 193 538 418q10 18 27 67q6 20 21 21q24 0 22 -31v-6q-14 -254 -618 -516q86 -127 219 -269q180 -190 268 -190q47 0 47 51q0 12 -5 36t-5 30q0 18 16 18 q35 0 35 -82q0 -43 -26.5 -71.5t-67.5 -28.5q-106 0 -289 178q-119 117 -235 270q-123 -215 -291 -360q-209 -178 -416 -178q-96 0 -158 43q-74 49 -73 139z" />
<glyph unicode="L" horiz-adv-x="1378" d="M20 229q0 61 27 109q33 57 90 57q61 0 213 -141q188 -172 211 -186q104 133 207 426q-94 -29 -176 -29q-90 0 -154 27q-84 39 -84 116q0 86 152 170q137 76 229 76q23 0 23 -18q0 -12 -22.5 -18.5t-73.5 -20.5q-248 -84 -248 -185q0 -96 182 -96q90 0 192 33 q55 160 89 237q59 129 133 213q111 131 204 131q129 0 129 -110q0 -117 -133 -258q-106 -111 -237 -187q-41 -20 -125 -63q-59 -164 -98 -248q-70 -152 -140 -219q76 -43 205 -74.5t219 -31.5q98 0 172 24q104 35 105 111q0 29 -30 56.5t-30 37.5q0 16 17 16q8 0 16 -6 q74 -53 74 -119q0 -100 -117 -149q-88 -35 -205 -35q-205 0 -473 137q-119 -75 -222 -75h-3q-125 0 -221.5 84.5t-96.5 207.5zM70 242q0 -98 81.5 -176t180.5 -78q88 0 168 47q-102 80 -203 160q-164 129 -182 129q-45 0 -45 -82zM881 592q94 37 245 190q162 166 162 250 q0 41 -35 41q-14 0 -32 -6q-182 -63 -340 -475z" />
<glyph unicode="M" horiz-adv-x="2281" d="M-104 606q0 106 153 230q104 84 248 153q121 57 248 96q180 53 321 54q299 0 299 -228q0 -184 -147 -469q117 139 233 281q176 190 277 190q123 0 123 -184q0 -160 -125 -463q135 152 297 307q229 217 323 248q27 8 45 8h2q62 0 62 -81q0 -68 -41 -166 q-63 -156 -129 -312q-82 -215 -82 -311q0 -74 55 -74q31 0 79 35t56 35t9 -10q0 -41 -56.5 -72t-99.5 -31q-117 0 -117 138q0 90 49 239q39 111 113 279q29 55 74 168q18 55 18 82q0 23 -14 22q-104 0 -373 -293q-195 -213 -323 -397q-41 -59 -68 -103q-10 -23 -33 -49 q-8 -2 -16 -2q-61 0 -62 49q0 10 7.5 20.5t76.5 156.5q207 430 207 618q0 86 -53 86q-86 0 -287 -219q-227 -250 -426 -580q-23 -39 -45 -75q-33 -51 -53 -68q-47 0 -47 45q0 14 8 25q113 137 244 434q143 319 143 471q0 205 -225 205q-119 0 -287 -60 q-113 -41 -230.5 -104.5t-222.5 -143.5q-156 -121 -155 -198q0 -115 223 -115q45 0 133 13.5t131 13.5q16 0 17 -8q0 -8 -11 -15q-70 -49 -231 -49q-117 0 -201 33q-115 45 -114 145z" />
<glyph unicode="N" horiz-adv-x="1810" d="M14 610q0 168 234 330q176 121 385 186q172 51 315 52q338 0 338 -267q0 -186 -149 -469q117 139 233 281q176 190 277 190q149 0 149 -143q0 -121 -118.5 -381t-118.5 -336q0 -61 57 -61q33 0 81 34.5t56 34.5t8 -10q0 -41 -56 -71.5t-101 -30.5q-109 0 -109 114 q0 84 61 226q74 166 78 178q43 102 66.5 185t23.5 130q0 72 -51 72q-25 0 -63 -16q-147 -68 -371 -349q-164 -207 -299 -432q-33 -59 -100 -143q-45 0 -45 45q0 14 6 25q113 137 250 444q147 330 147 479q0 221 -262 221q-125 0 -285 -55q-184 -61 -356 -180 q-227 -156 -227 -299q0 -117 157 -117q84 0 228 41q14 4 20 4q16 0 16 -12q0 -35 -106 -59q-84 -20 -139 -21q-229 0 -230 180z" />
<glyph unicode="O" horiz-adv-x="1323" d="M0 494q0 176 172 325q135 117 334 189q210 77 421 77h5q199 0 334 -73q170 -95 170 -277q0 -145 -115 -309q-145 -211 -418.5 -350t-529.5 -139q-268 0 -269 215q0 66 31 143q-135 63 -135 199zM47 496q0 -121 107 -158q94 166 283.5 341t359.5 245q86 35 147 39h4 q25 2 25 -19q0 -20 -29 -26q-78 -12 -141 -48q-76 -41 -170 -114q-111 -84 -223 -201q-150 -154 -174 -238q39 -8 75 -8q182 0 367 172q74 68 72 68q14 0 14 -17q-80 -115 -203 -186q-131 -78 -264 -78q-43 0 -76 11q-35 -68 -35 -127q0 -82 59.5 -127t143.5 -45 q246 0 492 147q229 137 376 350q111 160 111 289q0 143 -131 215q-104 57 -262 57q-205 0 -438 -92q-174 -70 -308 -170q-182 -141 -182 -280z" />
<glyph unicode="P" horiz-adv-x="946" d="M-78 899q0 25 35 55q29 27 57 37q223 74 525 74q213 0 409 -43q232 -51 232 -221q0 -53 -29 -111q-68 -135 -250 -215q-158 -69 -323 -69h-5q-90 0 -186 10q-207 -389 -207 -514q0 -6 2 -16.5t2 -14.5q0 -29 -22 -29q-33 0 -33 56q0 139 184 530q-170 33 -170 96 q0 41 52 68q41 22 84 22h4q23 0 22 -14q0 -14 -50 -25.5t-50 -35.5q0 -35 127 -70q78 162 153 297q23 39 70 113q31 43 104 43q29 0 29 -15q0 -6 -4 -14q-145 -197 -276 -438q45 -6 90 -6q168 0 338 75q195 90 243 228q10 33 11 63q0 135 -181 170q-125 25 -282 25 q-340 0 -668 -119q-14 -4 -22 -4q-14 0 -15 12z" />
<glyph unicode="Q" horiz-adv-x="1435" d="M0 494q0 176 172 325q135 117 334 189q210 77 421 77h5q199 0 334 -73q170 -95 170 -277q0 -145 -115 -309q-217 -313 -647 -440q84 -129 225 -283q184 -199 277 -199q47 0 47 50q0 14 -5.5 36.5t-5.5 30.5q0 18 19 19q33 0 33 -82q0 -43 -27 -72t-68 -29 q-113 0 -313 203q-137 139 -256 307q-123 -30 -221 -30h-6q-268 0 -269 215q0 66 31 143q-135 63 -135 199zM47 496q0 -121 107 -158q94 166 283.5 341t359.5 245q86 35 147 39h4q25 2 25 -19q0 -20 -29 -26q-68 -10 -113 -33q-76 -35 -167 -105q-115 -86 -240 -211 q-158 -160 -186 -250q10 2 18 3q41 0 41 -21q0 -27 -51 -27q-12 0 -25 5q-35 -68 -35 -127q0 -82 59.5 -127t143.5 -45q78 0 186 24q-77 114 -77 142q0 21 11 63.5t26 42.5q6 0 10 -10q51 -127 104 -217q375 117 608 452q111 160 111 289q0 143 -131 215q-104 57 -262 57 q-205 0 -438 -92q-174 -70 -308 -170q-182 -141 -182 -280z" />
<glyph unicode="R" horiz-adv-x="1007" d="M-78 899q0 25 35 55q29 27 57 37q223 74 525 74q213 0 409 -43q232 -51 232 -221q0 -53 -29 -111q-66 -131 -236 -209q-139 -63 -311 -75q-39 -3 -80 -3h-20q84 -133 235 -301q195 -213 283 -213q49 0 49 54q0 14 -5 36.5t-5 30.5q0 18 16 19q35 0 35 -82 q0 -45 -30.5 -78t-75.5 -33q-121 0 -328 232q-143 158 -258 340q-45 4 -82 14q-209 -395 -209 -520q0 -6 2 -17v-14q0 -29 -20 -29q-33 0 -33 56q0 143 190 546q-98 47 -98 127q0 45 33 82t78 37q49 0 86 -49q43 84 135 238q33 43 106 43q29 0 29 -15q0 -6 -6 -14 q-119 -162 -215 -334l67 -121q182 12 344 84q199 88 252 230q10 33 11 63q0 135 -181 170q-125 25 -282 25q-340 0 -668 -119q-14 -4 -22 -4q-14 0 -15 12zM236 549q0 -47 45 -78q24 49 49 98q-23 39 -49 39q-45 0 -45 -59zM350 444q22 -6 51 -8q-14 25 -28 49z" />
<glyph unicode="S" horiz-adv-x="1167" d="M12 90q0 147 185 283q172 125 325 125q66 0 66 -43q0 -117 -205 -234q-55 -33 -76 -33q-16 0 -16 9q0 14 43 39q115 63 162 149q14 25 14 35t-16 10q-123 0 -271 -96q-160 -106 -160 -223q0 -111 250 -111q190 0 424 68q279 80 357 198q23 35 22 68q0 131 -342 231 q-72 20 -145 41q-84 27 -140 56q-86 49 -86 122q0 141 248 242q205 84 371 84q213 0 213 -106q0 -51 -37 -113q-39 -68 -88 -68q-18 0 -18 15q0 2 35.5 45t35.5 78q0 81 -140 81h-3q-78 0 -180 -22q-113 -27 -224 -76q-161 -74 -161 -144q0 -67 188 -120q328 -96 352 -105 q190 -78 191 -200q0 -82 -88 -166q-131 -127 -369 -209q-221 -78 -420 -78q-297 0 -297 168z" />
<glyph unicode="T" horiz-adv-x="956" d="M47 889q0 29 21 61q57 88 211 137q125 39 256 39q123 0 176 -16q27 -8 26 -27q0 -16 -16 -16h-6q-168 16 -174 16q-106 0 -215 -28q-137 -35 -189 -99q-20 -25 -20 -41q0 -51 125 -51q121 0 327 54q166 45 330 90q12 20 39 57q27 31 98 31q27 0 27 -11q0 -4 -35 -51 q125 23 234 23q113 0 227 -60q133 -70 133 -170q0 -33 -20 -32q-10 0 -15 18q-6 35 -16 53q-35 61 -131 99q-79 30 -161 30h-5q-131 0 -301 -37q-154 -219 -266 -450q-150 -305 -150 -496q0 -80 27 -80q18 0 51 24t37 24q18 0 18 -19q0 -23 -42 -46.5t-68 -23.5 q-100 0 -101 127q0 154 142 467q100 227 229 443q-154 -43 -307 -88q-184 -47 -310 -47q-186 0 -186 96z" />
<glyph unicode="U" horiz-adv-x="1411" d="M-33 481q0 47 27 105q84 180 328 327q238 145 440 146q201 0 201 -164q0 -80 -58 -201q-70 -135 -196 -411q-49 -129 -50 -193q0 -59 43 -59q106 0 293 231q135 170 283 410q31 49 86 149q33 76 109 215q12 16 46.5 28.5t57.5 12.5q18 0 18 -10q0 -4 -4 -8 q-197 -340 -274 -551q-115 -313 -115 -502q0 -123 53 -123q20 0 52 29t39 29q18 0 18 -19q0 -27 -54.5 -58.5t-82.5 -31.5q-96 0 -97 154q0 176 125 549q-123 -166 -243 -332q-188 -231 -293 -232q-131 0 -131 127q0 109 98 324q80 156 158 313q43 92 43 154q0 121 -152 121 q-168 0 -374.5 -122t-274.5 -272q-37 -80 -37 -129q0 -63 72 -63q16 0 48 6t46 6q16 0 16 -10q0 -25 -57 -41q-43 -10 -78 -10q-129 0 -129 106z" />
<glyph unicode="V" horiz-adv-x="1220" d="M-2 481q0 47 29 105q84 180 323.5 326.5t440.5 146.5q204 0 204 -156q0 -88 -86 -305q-51 -123 -102 -248q-59 -162 -59 -254q0 -69 31 -69h1q10 0 23 6q182 92 538 702q305 524 461 525q53 0 53 -25q0 -16 -24 -16q-41 0 -86 -40t-148 -180q-154 -211 -309 -464 q-115 -184 -233 -330q-193 -233 -305 -234q-80 0 -80 123q0 102 51 246q12 35 96 238q102 248 103 292q0 139 -162 140q-166 0 -369 -124t-270 -270q-37 -80 -37 -129q0 -63 72 -63q16 0 47.5 6t46.5 6q14 0 14 -10q0 -25 -57 -41q-43 -10 -78 -10q-129 0 -129 106z" />
<glyph unicode="W" horiz-adv-x="2066" d="M-12 471q0 158 172 352q156 176 379 307.5t379 131.5q233 0 233 -201q0 -92 -53 -207q-57 -127 -160 -301q-88 -147 -176 -293q-76 -131 -76 -209q0 -67 55 -67h2q68 0 195 88q309 213 655 633q18 27 62 73q27 23 59 23q23 0 23 -19q0 -12 -15 -37q-198 -346 -198 -569 q0 -153 79 -153h1q68 0 182 120q94 100 141 185q137 250 137 379q0 23 -15 65.5t-15 67.5q0 69 44 69h1q25 0 43 -53q14 -41 14 -74q0 -20 -2 -47q10 -23 37 -31t27 -22q0 -16 -23 -16q-25 0 -53 12q-45 -195 -148 -373q-119 -203 -264 -295q-59 -37 -119 -37 q-143 0 -143 179q0 117 90 405q-279 -283 -356 -352q-256 -231 -398 -260q-35 -8 -67 -8q-115 0 -115 104q0 94 96 276q31 55 158 263q188 309 188 483q0 143 -149 143q-168 0 -430 -198q-229 -174 -346 -346q-78 -115 -78 -191q0 -65 72 -65h2q25 0 69.5 16t61.5 16 q23 0 22 -12q0 -29 -71 -53q-61 -20 -97 -21q-113 0 -112 119z" />
<glyph unicode="X" horiz-adv-x="1323" d="M-115 -37q0 80 95 180q72 78 163 133q18 10 27 11q14 0 14 -11q0 -16 -32 -45q-199 -166 -199 -268q0 -63 98 -63q330 0 846 473q-90 258 -90 534v58q2 16 27.5 42.5t42.5 26.5q12 0 12 -14v2v-68q0 -274 82 -514q31 31 59 60q92 92 213 254q154 201 154 270q0 29 -31 29 q-29 0 -79 -21.5t-54 -21.5q-10 0 -10 10q0 29 86 59q76 27 116 27q64 0 64 -57q0 -106 -199 -355q-150 -186 -295 -321q51 -125 113 -221q96 -154 174 -154q66 0 82 106q4 29 22 29t19 -20q0 -66 -45 -117t-109 -51q-100 0 -202 137q-72 94 -125 225q-203 -178 -410 -297 q-268 -153 -470 -153h-3q-156 0 -156 106z" />
<glyph unicode="Y" horiz-adv-x="1538" d="M-33 481q0 47 27 105q84 180 328 327q238 145 440 146q201 0 201 -164q0 -80 -59.5 -201t-168.5 -372q-35 -98 -35 -154q0 -59 45 -59q111 0 299 231q59 72 175 219q41 68 124 201q2 23 9 67q6 31 50 74t75 43q25 0 24 -26q0 -8 -2 -11q-6 -16 -18 -47q-31 -88 -66 -315 q-16 -129 -67 -385h20h15q45 0 90 -10q73 -17 73 -52q0 -23 -22 -22q-10 0 -19 4q-53 24 -98 24h-4q-31 0 -70 -8q-98 -332 -344 -565q-272 -260 -596 -260q-90 0 -157 39q-80 49 -80 133q0 246 454 471q324 160 672 236q20 84 53 507q-16 -27 -28 -45q-86 -119 -263 -352 q-172 -211 -276 -211q-141 0 -141 131q0 121 130 378t130 331q0 121 -152 121q-168 0 -374.5 -122t-274.5 -272q-37 -80 -37 -129q0 -63 72 -63q16 0 48 6t46 6q16 0 16 -10q0 -25 -57 -41q-43 -10 -78 -10q-129 0 -129 106zM213 -565q0 -106 174 -107q154 0 289 60 q190 84 360 290q163 199 226 408q-279 -53 -617 -225q-432 -219 -432 -426z" />
<glyph unicode="Z" horiz-adv-x="950" d="M-180 -631q0 70 39 154q111 244 379 397q246 139 532 158q18 49 18 82q0 78 -110 78q-92 0 -203 -45q-121 -49 -123 -50q-23 0 -22 19q0 23 26 49q12 14 81 34.5t87 33.5q166 102 314 243q198 189 198 315t-180 126q-186 0 -434 -111q-233 -109 -375 -246q-31 6 -31 33 q0 92 205 199q141 74 293 118q174 51 326 52q266 -1 266 -187q0 -133 -172 -303q-90 -88 -289 -231h23h10q172 0 172 -140q0 -31 -10 -67h16h15q156 0 169 -41q-2 -16 -20 -16q-14 0 -36.5 8t-31 9t-49.5 1q-39 0 -76 -2q-16 -41 -43 -84q-238 -410 -561 -614 q-164 -106 -274 -107q-129 0 -129 135zM-104 -596q0 -104 96 -104q78 0 203 77q145 90 313 295q154 187 242 361q-432 -45 -693 -316q-86 -90 -127 -178q-35 -80 -34 -135z" />
<glyph unicode="[" horiz-adv-x="1198" d="M98 39q0 244 265.5 751.5t465.5 645.5q53 35 138 34q207 0 207 -43l-3 -26q-12 -2 -28 -2q-25 0 -74 4t-74 4q-88 0 -112 -14q-45 -29 -125 -123q-164 -193 -357 -551q-223 -412 -223 -596q0 -115 158 -115q27 0 78 5t75 5q59 0 60 -24q0 -29 -230 -29q-221 0 -221 74z " />
<glyph unicode="\" horiz-adv-x="1128" d="M20 1452q2 12 29 12q49 0 98.5 -40t188.5 -216q258 -326 457 -661q278 -473 278 -719q0 -66 -53 -66v41q0 328 -369 877q-276 410 -629 772z" />
<glyph unicode="]" horiz-adv-x="1138" d="M66 -31q47 41 79 47h93q199 0 292 113q162 193 322 565q170 395 170 623q0 39 -8 76q-29 18 -82 18q-39 0 -101 -4q-82 -4 -102 -6q66 66 223 65q88 0 99 -4q51 -12 51 -71q0 -299 -171 -705.5t-382 -630.5q-86 -90 -359 -90q-92 0 -124 4z" />
<glyph unicode="^" horiz-adv-x="757" d="M131 692q0 20 125 124t154 108l12 -4q80 -90 256 -222l10 -20l-8 -14q-43 2 -152.5 71.5t-146.5 108.5q-207 -172 -234 -172q-16 0 -16 20z" />
<glyph unicode="_" horiz-adv-x="1650" d="M16 -90q0 39 35 39h1516q51 -1 57 -58l-14 -14q-575 0 -1161 -14q-47 0 -199 -6q-123 -6 -199 -7q-35 0 -35 60z" />
<glyph unicode="`" horiz-adv-x="452" d="M76 797q0 27 20 26q12 0 35 -16q80 -57 215 -168q8 -6 8 -14q0 -10 -14 -11q-10 0 -116.5 63.5t-129.5 82.5q-18 12 -18 37z" />
<glyph unicode="a" horiz-adv-x="589" d="M33 59q0 106 102.5 257t198.5 184q35 14 67 14q74 0 107 -51q6 -10 6 -14q0 -2 -14.5 -6.5t-20.5 -14.5q-49 -80 -49 -240q0 -147 64 -147q45 0 128 99.5t89 99.5q6 -1 6 -11t-12 -28q-90 -145 -170 -187q-37 -18 -74 -18q-125 0 -125 176q0 29 4 61q-136 -243 -243 -243 h-1q-63 0 -63 69zM102 94q0 -43 29 -43q45 0 117 94q100 127 168 299q-8 2 -19 2q-82 0 -170 -104q-125 -152 -125 -248z" />
<glyph unicode="b" horiz-adv-x="497" d="M31 -66q0 12 12 13q6 0 29.5 -7.5t40.5 -7.5q92 0 182 105q68 80 111 186q38 94 38 198v5q0 68 -30 68q-68 0 -181 -187q-106 -176 -106 -260q0 -23 15.5 -35t15.5 -20t-11 -8q-76 0 -75 110q0 158 166 471q125 233 272 441q39 53 76 108q57 70 100 70q49 0 49 -25 q0 -4 -6 -12q-74 -76 -127 -143q-123 -150 -242 -347q-141 -233 -180 -376q53 96 125 176q97 112 173 112h1q61 0 62 -88q0 -125 -80 -288q-55 -113 -139 -193q-102 -96 -209 -96q-82 0 -82 30z" />
<glyph unicode="c" horiz-adv-x="450" d="M185.5 364q111.5 121 209.5 121q66 0 66 -51q0 -20 -30 -70.5t-48 -50.5q-8 0 -8 11q0 8 7 26.5t7 28.5q0 43 -53 43q-74 0 -133 -96q-55 -88 -56 -166q0 -127 111 -127q139 0 291 190q20 25 35 25q8 0 8 -6q0 -8 -12 -23q-72 -104 -199 -190q-74 -47 -156 -47 q-151 0 -151 159q0 102 111.5 223z" />
<glyph unicode="d" horiz-adv-x="589" d="M33 59q0 127 131 295q130 169 245 169q8 0 15 -1q68 236 151 412q139 287 273 287q86 -1 86 -99q0 -217 -490 -790q-12 -72 -12 -135q0 -156 66 -156q43 0 126 99.5t89 99.5t6 -11q0 -10 -10 -28q-129 -207 -250 -207q-106 0 -107 162q0 51 13 118q-159 -284 -268 -284 h-1q-63 0 -63 69zM100 98q0 -45 31 -45q45 0 117 92q27 35 88 142q65 116 65 139q0 2 -4 7t-22 5q-82 0 -178.5 -127t-96.5 -213zM457 391q397 539 397 727q0 45 -37 45q-100 0 -227 -334q-84 -219 -133 -438z" />
<glyph unicode="e" horiz-adv-x="415" d="M53 152q0 106 92 233q98 135 203 135q20 0 35.5 -18.5t15.5 -38.5q0 -63 -96 -154q-86 -80 -158 -106q-14 -51 -14 -86q0 -84 76 -84q72 0 162 59q78 51 133 117q14 20 28 20q9 0 9 -8q0 -4 -4 -12q-51 -80 -154 -148q-108 -71 -197 -71h-2q-129 0 -129 162zM160 244 q53 23 110 80q68 65 68 114q0 25 -25 25q-31 0 -90 -94q-51 -80 -63 -125z" />
<glyph unicode="f" horiz-adv-x="534" d="M-129 -537q0 164 98 441q80 229 185 424q72 139 219 415q61 119 80 150q49 88 94 139q33 37 71 37q52 0 52 -43q0 -10 -6 -22q-18 -37 -189 -281q-152 -215 -252 -397q14 12 31 12q63 0 106 -221q53 -31 91 -31q53 0 116.5 64.5t71.5 64.5q10 0 10 -12q0 -6 -6 -17 q-121 -170 -217 -170q-35 0 -59 25q6 -41 6 -88q0 -164 -78 -361q-84 -205 -201 -305q-57 -47 -106 -47q-63 0 -94 84q-23 61 -23 139zM-41 -547q0 -137 66 -137q27 0 59 27q117 96 184 274q64 164 64 328q0 78 -17 147q-49 33 -83 87q-29 48 -29 96v12q-244 -547 -244 -834 z" />
<glyph unicode="g" horiz-adv-x="536" d="M-520 -631q0 219 311 420q264 170 512 209q14 78 47 235q-136 -243 -243 -243h-1q-63 0 -63 69q0 104 102.5 256t198.5 185q37 14 68 14q29 0 69.5 -19t40.5 -44q0 -8 -18.5 -14.5t-24.5 -18.5q-10 -45 -22 -105q-25 -104 -72 -313h8h15q94 0 94 -47q0 -12 -8 -12 q-2 0 -17.5 10t-58.5 10q-20 0 -41 -2q-76 -307 -195 -477q-221 -324 -471 -324q-98 0 -164.5 57.5t-66.5 153.5zM-461 -637q0 -80 50.5 -128t129.5 -48q127 0 250 106q98 84 174 215q109 185 158 453q-135 -23 -321.5 -117t-286.5 -188q-154 -147 -154 -293zM113 94 q0 -43 28 -43q45 0 117 94q100 127 168 299q-8 2 -18 2q-82 0 -170 -104q-125 -152 -125 -248z" />
<glyph unicode="h" horiz-adv-x="636" d="M33 10q0 47 88 244q131 297 293 553q250 395 407 395q88 0 88 -100q0 -133 -213 -367q-90 -98 -323 -311q-55 -47 -156 -150q-12 -16 -44 -97t-32 -99q2 -2 2 -6q45 59 150 174q115 127 158 157q18 12 32 13q47 0 47 -43l-49 -107q-49 -106 -49 -168q0 -71 62 -71h2 q59 0 122 59q43 37 97 111q43 59 49 59t6 -12q0 -14 -10 -35q-137 -231 -291 -232q-111 0 -111 134q0 88 45 211q-57 -51 -140 -152.5t-122 -169.5q-23 -16 -53 -16q-55 0 -55 26zM248 356q133 86 350 336q240 278 240 393q0 68 -45 68q-111 0 -314 -340 q-139 -233 -231 -457z" />
<glyph unicode="i" horiz-adv-x="366" d="M53 76q0 61 41 168q37 98 78 153q12 18 29 19q18 0 33.5 -16.5t15.5 -34.5q0 -10 -8 -23q-102 -160 -103 -266q0 -74 54 -74q59 0 133 66q49 43 108 118q51 66 53 66q11 0 11 -16q0 -14 -15 -33q-186 -248 -317 -248q-113 0 -113 121zM246 592q0 25 19.5 44t45.5 19 q49 0 49 -49q0 -25 -19 -44t-46 -19q-49 0 -49 49z" />
<glyph unicode="j" horiz-adv-x="323" d="M-745 -645q0 221 331 428q279 176 533 215q27 78 53 256q-84 -100 -90 -100q-12 0 -12 14q0 8 6 14q92 127 112 242q6 39 62 39q35 0 35 -23q0 -47 -25 -174q-29 -147 -59 -266h6q27 0 61 -8q47 -11 47 -31q0 -14 -14 -14q-2 0 -12 4q-18 10 -64 10q-18 0 -35 -2 q-96 -307 -225 -477q-242 -324 -493 -324q-94 0 -155.5 52.5t-61.5 144.5zM-688 -651q0 -76 47 -119t123 -43q127 0 258 106q102 84 186 215q121 185 189 453q-139 -23 -331 -117t-298 -188q-174 -156 -174 -307zM201 653q0 25 19.5 44.5t43.5 19.5q49 0 49 -49 q0 -25 -19.5 -44.5t-43.5 -19.5q-49 0 -49 49z" />
<glyph unicode="k" horiz-adv-x="745" d="M88 10q0 47 86 244q127 291 289 549q250 399 407 399q93 0 93 -84q0 -147 -258 -411q-166 -168 -394 -340q-41 -86 -67 -166l202 202q152 143 224 144q53 0 53 -78q0 -80 -111 -156q-95 -67 -173 -67h-11q43 -197 164 -197q119 0 260 187q12 18 25 18q10 0 10 -10 q0 -8 -8 -21q-49 -72 -140 -151q-109 -98 -170 -99q-76 0 -151 105q-70 94 -80 176q-49 -57 -96 -113q-47 -61 -62 -141q-23 -10 -47 -10q-45 0 -45 20zM356 459q145 90 334 286q225 230 225 345q0 43 -34 43q-53 0 -164 -95q-195 -162 -330 -491q-31 -76 -31 -88zM385 289 q8 -16 37 -17q61 0 137 54.5t76 111.5q0 41 -27 41q-41 0 -223 -190z" />
<glyph unicode="l" horiz-adv-x="501" d="M98 199q0 172 170 463q139 238 297 411q113 123 189 123q25 0 47 -27.5t22 -54.5q0 -139 -264 -473q-209 -260 -389 -428q0 -223 113 -223t319 231q8 10 16 10q10 0 11 -14q0 -8 -6 -16q-72 -94 -164 -164q-117 -90 -207 -90q-154 0 -154 252zM176 260q113 98 303 361 q197 274 238 397q18 57 18 88q0 39 -26 39q-59 0 -146 -115q-98 -133 -223 -375q-137 -264 -164 -395z" />
<glyph unicode="m" horiz-adv-x="782" d="M0 18q0 10 2 17q47 111 96 311q4 29 17 82q4 14 27.5 28.5t39.5 14.5q14 0 15 -12q0 -20 -97 -312q74 98 152 203q25 33 74 99q30 36 61 36h2q33 0 33 -36q0 -27 -14.5 -106t-32.5 -230q57 82 178 239q33 39 65 39q31 0 31 -39q0 -33 -10 -97.5t-10 -96.5q0 -106 55 -107 q78 0 199 172q12 20 20 21q10 -1 10 -19q0 -8 -4 -12q-51 -72 -114 -133q-88 -82 -148 -82q-96 0 -96 213q0 33 2 74q-74 -66 -166 -236q-31 -57 -68 -57q-12 0 -18 8q-6 23 -6 57q0 59 27 217q14 80 14 103q0 16 -6 16q-35 -31 -113 -133q-84 -111 -180 -260 q-12 -18 -21 -18q-16 0 -16 36z" />
<glyph unicode="n" horiz-adv-x="569" d="M14 18q0 10 4 17q43 104 91 297q6 33 20 96q6 14 28.5 28.5t41.5 14.5q14 0 14 -12q0 -20 -96 -312q25 33 153 175q43 49 127 139q16 14 33 14q47 0 47 -47q0 -10 -8 -25q-115 -188 -115 -299q0 -77 72 -77h2q57 0 123 59q43 37 96 111q43 59 49 59t6 -12q0 -14 -12 -35 q-139 -231 -289 -232q-116 0 -116 146q0 133 59 233q-143 -129 -293 -356q-12 -18 -18 -18q-18 0 -19 36z" />
<glyph unicode="o" horiz-adv-x="468" d="M49 49q0 117 103 275q-4 23 -5 45q0 74 49.5 143.5t120.5 69.5q47 0 76 -56q23 -47 23 -98q0 -111 -86 -281q31 -18 69 -18q68 0 127.5 53.5t55.5 53.5q14 -1 14 -15q0 -4 -4 -8q-29 -49 -87.5 -84t-113.5 -35q-41 0 -76 21q-94 -150 -194 -150q-72 0 -72 84zM123 55 q0 -41 31 -41q29 0 75 49q42 39 58 74q-68 45 -103 105q-61 -129 -61 -187zM195 379q33 39 65 39q31 0 45 -21v-10q2 -6 2 -10q0 -6 -20 -6q-37 0 -78 -78q27 -78 94 -127q51 129 51 211q0 45 -14 92q-20 66 -53 66q-47 0 -74 -58q-18 -41 -18 -88v-10z" />
<glyph unicode="p" horiz-adv-x="669" d="M-250 -567q0 100 184 372q131 180 265 363v12q0 74 -2 129q-78 -127 -99 -127q-12 0 -12 15q0 8 6 16q90 127 90 227q0 20 -11 34l-11 13q0 16 63 17q70 0 70 -139q0 -20 -3 -60.5t-3 -58.5q57 104 127 192q106 131 178 131q66 0 65 -96q0 -121 -85 -280.5t-185 -223.5 q178 4 395 277q8 10 13 10q8 0 8 -12q0 -14 -12 -35q-53 -88 -177 -176q-131 -98 -221 -99q-18 0 -55 3h-53q-8 0 -62 14q-63 -164 -172 -344q-154 -250 -250 -250q-51 0 -51 76zM-178 -553q0 -18 12 -18q90 0 248 295q41 78 88 268q-2 10 -2 20q0 25 12 45q-2 2 -4 2 q-8 0 -22 -20q-49 -74 -148 -217q-43 -61 -108 -187q-76 -145 -76 -188zM258 59q20 -31 72 -77q90 39 166 194q71 148 71 254q0 63 -35 64q-10 0 -20 -5q-74 -33 -156 -190q-61 -117 -98 -240z" />
<glyph unicode="q" horiz-adv-x="544" d="M-8 -643q0 61 18 119q31 100 101 250q55 123 112 247q-27 8 -26 29q0 12 12 12q4 0 16.5 -2t18.5 -2q49 82 114 209q-164 -207 -249 -207q-59 0 -60 62q0 104 117 261t217 189q37 12 68 13q72 0 102 -50q4 -8 4 -10t-25.5 -12t-44.5 -51q12 4 23 4q27 0 27 -21l-101 -172 q-102 -172 -106 -205h16q141 0 309 220q10 12 19 12q8 0 8 -10q0 -12 -16 -35q-61 -96 -146 -160q-89 -65 -174 -65q-15 0 -29 2q76 -37 113 -154q29 -88 29 -195q0 -66 -10 -112q-29 -137 -109 -252q-100 -141 -221 -141q-66 0 -101 86q-26 61 -26 135v6zM39 -700 q0 -111 86 -111q90 0 174 113q66 88 98 194q29 92 29 178q0 78 -31 166q-41 113 -104 113q-4 0 -21 -31q-119 -207 -184 -403q-47 -135 -47 -219zM121 111q0 -35 26 -35q45 0 123 92q109 129 191 301q-8 2 -19 2q-82 0 -178 -104q-143 -160 -143 -256z" />
<glyph unicode="r" horiz-adv-x="604" d="M63 168q0 8 11 22q80 109 162 281q-4 18 -5 45q0 47 19 109q20 77 54 77h1q23 0 39 -36q14 -29 14 -56q0 -51 -84 -149q18 -63 72 -64q37 0 72 40t49 40q18 0 32.5 -15.5t14.5 -35.5q0 2 -71.5 -137t-71.5 -215q0 -72 67 -72q57 0 131 66q47 43 111 122q51 66 53 66 q8 0 8 -12q0 -16 -12 -35q-160 -254 -317 -254q-115 0 -115 133q0 127 86 268q-12 -4 -27 -4q-33 0 -63 21q-37 23 -37 51q-23 -51 -84 -145q-76 -119 -100 -119q-8 0 -9 8z" />
<glyph unicode="s" horiz-adv-x="534" d="M6 176q0 59 33 60q20 0 43 -29q33 33 101.5 152.5t113.5 170.5q72 82 145 82q29 0 58.5 -18.5t29.5 -44.5q0 -16 -47 -16.5t-86 -30t-39 -74.5q0 -16 7 -35q27 -68 51 -133q27 -80 26 -139q121 18 203 121q6 6 10 6q13 -1 13 -17q0 -8 -4 -16q-68 -106 -228 -137 q-12 -61 -62 -98t-114 -37q-94 0 -174 70.5t-80 162.5zM59 135q55 -135 174 -135q80 0 109 70h-9q-164 0 -267 71zM100 182q125 -61 252 -67v20q0 45 -35 168q-29 96 -29 135q0 8 1 13q-109 -172 -189 -269z" />
<glyph unicode="t" horiz-adv-x="430" d="M2 485q0 12 21 13q25 0 78 -4.5t79 -4.5q12 20 90 164q59 113 99 148q28 28 77 28h3q45 0 45 -18q0 -2 -2 -6q-29 -37 -82 -105q-90 -121 -146 -217q29 -2 82 -2q14 0 43 2h43q25 0 25 -12q0 -31 -213 -37q-33 -51 -61.5 -143t-28.5 -152q0 -106 79 -106q68 0 166 69 q84 59 133 125q14 18 27 19q8 0 8 -10q0 -8 -8 -21q-53 -74 -166 -152q-124 -83 -203 -83h-2q-116 0 -116 167q0 134 73 285q-143 0 -143 53z" />
<glyph unicode="u" horiz-adv-x="595" d="M41 133q0 66 43 158q47 106 102 106q31 0 31 -16q0 -2 -52 -93t-52 -141q0 -65 38 -65h1q66 0 235 299q14 29 43 80q14 16 31 16q18 0 33.5 -15.5t15.5 -35.5q0 2 -72.5 -137t-72.5 -215q0 -72 67 -72q57 0 131 66q49 43 111 122q51 66 55 66q6 0 6 -12q0 -14 -12 -35 q-57 -94 -133 -164q-98 -90 -184 -90q-115 0 -115 143q0 33 31 129q-72 -104 -93 -129q-68 -80 -120 -80q-68 0 -68 115z" />
<glyph unicode="v" horiz-adv-x="645" d="M57 156q0 14 84 118q78 98 105 123q18 16 41 17q25 0 24 -17q0 -8 -8 -20q-135 -186 -135 -295q0 -43 41 -43q59 0 143 98q68 78 105 154v10q0 14 -2 41t-2 39q0 117 88 149q14 6 24 7q27 0 27 -37q0 -86 -78 -201v-12v-6q0 -47 33 -91q35 -46 84 -47q49 0 98 57.5 t45 57.5q12 0 12 -18q0 -8 -4 -15q-58 -110 -168 -110h-2q-123 0 -145 121q-31 -61 -121 -146q-98 -94 -153 -94q-74 0 -74 106q0 72 35 152q-2 -2 -4 -6q-27 -55 -62 -86q-16 -14 -25 -15q-6 0 -6 9z" />
<glyph unicode="w" horiz-adv-x="823" d="M55 -4q0 90 86 256q94 180 174 180q23 0 23 -14q0 -4 -6 -10q-55 -61 -139 -203q-92 -160 -93 -217q0 -20 17 -21q111 0 303 295q25 43 63 94q10 6 27 6q33 0 33 -26q-74 -117 -74 -221q0 -70 59 -70q43 0 97 88q37 63 57 129q-43 141 -43 158q0 31 27 31q33 0 53 -37 t20 -72q0 -37 -18 -78q29 -119 94 -119q39 0 85 53.5t50 53.5q13 0 13 -14q0 -6 -5 -11q-82 -121 -151 -121q-61 0 -115 101q-18 -76 -63 -137q-55 -80 -119 -80q-61 0 -92 57q-22 40 -22 90q0 11 1 23q-49 -68 -131 -142q-102 -92 -157 -92q-53 0 -54 70z" />
<glyph unicode="x" horiz-adv-x="501" d="M6 -25q0 16 105 123q115 117 127 135q-12 49 -41 93q-6 -23 -46 -83.5t-53 -60.5q-12 0 -12 15q0 2 32 54t32 89q0 2 -7 33q-2 2 -2 6q0 35 66 35q31 0 65 -54q29 -45 37 -84q4 2 133 99q104 76 123 76q8 0 8 -7q0 -10 -110 -94q-117 -90 -133 -114q20 -47 43 -97 q31 -63 67 -63q47 0 117 89t82 89q6 0 6 -6q0 -8 -14 -29q-137 -215 -225 -215q-63 0 -152 189q-18 -14 -126 -120t-114 -106q-8 0 -8 8z" />
<glyph unicode="y" horiz-adv-x="561" d="M-481 -631q0 219 313 420q262 170 510 209q29 127 66 377q-25 -59 -88.5 -156.5t-108.5 -144.5q-53 -55 -100 -56q-66 0 -66 115q0 66 41 158q47 106 104 106q29 0 29 -16q0 -2 -51 -93t-51 -141q0 -65 36 -65h1q63 0 276 412q4 30 48 30h3q37 0 37 -16q0 -27 -26 -174 q-31 -174 -68 -334h8h15q94 0 94 -47q0 -12 -6 -12q-2 0 -18.5 10t-59.5 10q-20 0 -39 -2q-78 -307 -195 -477q-221 -324 -473 -324q-98 0 -164.5 57.5t-66.5 153.5zM-422 -637q0 -80 50 -128t132 -48q125 0 248 106q98 84 174 215q109 185 158 453q-135 -23 -321.5 -117 t-284.5 -188q-156 -147 -156 -293z" />
<glyph unicode="z" horiz-adv-x="688" d="M-354 -631q0 219 311 420q264 170 510 209q-2 129 -100 129q-20 0 -62.5 -19.5t-56.5 -19.5q-27 0 -27 25q0 12 19 30q221 203 221 273q0 45 -51 45q-125 0 -263 -219q-14 -20 -20 -21q-8 0 -8 10t8 25q45 94 119 160q86 76 176 76q111 0 110 -93q0 -100 -163 -231h6h5 q65 0 111 -48q48 -50 54 -120h8h11q86 0 100 -29q2 -8 2 -18q0 -12 -7 -12q-4 0 -18 10t-57 10q-20 0 -41 -2q-4 -199 -195 -477q-221 -324 -473 -324q-98 0 -163.5 57.5t-65.5 153.5zM-297 -637q0 -80 50 -128t132 -48q233 0 424 321q154 260 158 453q-137 -23 -323.5 -117 t-284.5 -188q-156 -147 -156 -293z" />
<glyph unicode="{" horiz-adv-x="528" d="M31 432l6 10q121 12 168 54q61 53 84 206q27 176 59 230q66 109 250 108q6 0 8 -2l-12 -4q-162 0 -211 -129q-29 -131 -57 -262q-27 -88 -84 -143q-66 -63 -148 -64h-6q66 -4 110 -46t44 -105q0 -59 -27 -174t-27 -174q0 -78 48 -101l110 -20l2 -4q-8 -4 -16 -5 q-90 0 -133 23q-59 31 -60 115q0 59 30 173.5t30 174.5q0 137 -168 139z" />
<glyph unicode="|" horiz-adv-x="358" d="M84 -166q0 6 15.5 70.5t41.5 191.5q53 315 54 625q0 125 -11 192q0 12 -9 45t-9 52q0 16 27 16q67 0 67 -141q0 -150 -45 -537q-51 -430 -90 -487q-20 -29 -41 -29v2z" />
<glyph unicode="}" horiz-adv-x="696" d="M35 -184q8 4 72.5 9t101.5 32q55 41 106 221q53 188 115 246q92 86 203 98q-160 10 -160 129q0 66 41 189.5t41 187.5q0 68 -45 82q-49 8 -100 16l-2 4l10 6q190 0 190 -108q0 -68 -45 -195t-45 -194q0 -99 156 -115l-8 -12q-182 -2 -246 -158q-45 -143 -90 -287 q-76 -156 -285 -155q-8 0 -10 4z" />
<glyph unicode="~" horiz-adv-x="620" d="M98 819q0 31 86 82q35 20 76 21q35 0 98.5 -21.5t96.5 -21.5q49 0 84 45q12 -1 12 -9q0 -31 -80 -86q-27 -18 -57 -18q-35 0 -101.5 27.5t-101.5 27.5t-67.5 -26.5t-43.5 -26.5q-2 2 -2 6z" />
<glyph unicode="&#xa1;" horiz-adv-x="512" d="M-162 -606l17 22q166 240 206 303q113 176 172 326q8 23 27 70q12 31 33 30q14 0 14 -18q0 -35 -178 -379q-164 -319 -217 -403q-2 -4 -6 -4q-12 0 -40 20.5t-28 32.5zM324 324q0 49 55 49q51 0 51 -49t-51 -50q-55 0 -55 50z" />
<glyph unicode="&#xa2;" horiz-adv-x="604" d="M51 -72q0 12 10 60q41 205 111 299q-49 35 -49 112q0 86 97 189.5t181 95.5q23 43 91 158q78 131 90 140t24 9q23 0 23 -14q0 -4 -2 -8q-68 -96 -191 -299q10 -10 10 -27q0 -18 -24.5 -60t-40.5 -42q-6 0 -6 8t6 23.5t6 23.5q0 35 -45 35q-61 0 -108.5 -77t-47.5 -142 q0 -104 93 -105q113 0 241 160q16 20 29 20q6 0 6 -6q0 -25 -76 -94q-63 -57 -100 -82q-61 -41 -129 -41q-16 0 -33 4q-68 -90 -139 -350q-2 -4 -6 -4q-20 0 -21 14z" />
<glyph unicode="&#xa3;" horiz-adv-x="1378" d="M70 170q0 57 67 57q94 0 426 -168q106 133 205 420h-283q-18 0 -18 13q0 35 37 34h280q113 334 230 469q111 127 200 127q59 0 96.5 -37.5t37.5 -99.5q0 -150 -168 -233q-12 -6 -21 -7q-8 0 -8 9q0 16 27 37q14 10 41 32q82 78 81 178q0 78 -55 78q-12 0 -26 -6 q-115 -37 -226 -235q-45 -80 -141 -312h344q12 0 12 -10q0 -37 -45 -37h-329q-68 -166 -101 -229q-72 -150 -133 -205q74 -47 211 -82q129 -33 223 -33q100 0 176 27q106 37 107 115q0 35 -28.5 62.5t-28.5 33.5q0 10 8 10q6 0 12 -6q72 -52 72 -113q0 -96 -117 -143 q-84 -35 -199 -35q-205 0 -473 139q-121 -76 -225 -75q-96 0 -178 63q-90 68 -90 162zM135 154q0 -70 62.5 -122t134.5 -52q102 0 180 53q-47 35 -174 84t-180 49q-23 0 -23 -12z" />
<glyph unicode="&#xa4;" horiz-adv-x="1202" d="M31 393q0 43 37 58q12 4 90 14q49 78 118 156q-180 -29 -157 -29q-8 0 -8 8q0 43 36 57q31 10 191 27q174 172 381 283q242 131 450 131q226 0 226 -152q0 -43 -27 -102q-33 -70 -70 -70q-18 0 -18 19q0 8 35 63t35 98q0 102 -176 103q-186 0 -410 -115 q-193 -100 -348 -250q145 12 272 13q299 0 299 -48q0 -18 -18 -18q-35 0 -112 11.5t-116 11.5q-166 0 -385 -29q-72 -78 -118 -158q193 23 370 23q299 0 299 -47q0 -18 -18 -19q-35 0 -112 11.5t-115 11.5q-197 0 -457 -39q-53 -115 -53 -207q0 -125 96 -189q82 -51 215 -51 q164 0 366 99q170 82 322 208q6 6 10 7q18 0 19 -21q0 -6 -6 -12q-152 -139 -353 -234q-221 -104 -405 -104q-143 0 -244 59q-121 70 -121 205q0 100 68 225q-86 -16 -80 -16q-8 0 -8 8z" />
<glyph unicode="&#xa5;" horiz-adv-x="954" d="M41 426l2 6q25 6 152 12q16 47 45 158q-18 0 -78 -6q-49 -6 -80 -6q-10 0 -24.5 18.5t-16.5 28.5l2 4q37 12 209 14q35 150 35 238q0 76 -41 186q-4 6 -30 63.5t-26 59.5q0 23 62 23q90 0 90 -305q0 -162 -27 -265l9 -2q137 145 335 332q283 264 334 264q11 0 25 -2v-6 q-375 -264 -627 -590q117 -8 146 -20q6 -2 6 -6q0 -10 -13 -11q-63 0 -170 -6q-59 -82 -90 -164q215 0 267 -22q6 -4 6 -6q0 -12 -13 -13q-113 0 -278 -10q-29 -88 -57 -248q-4 -41 -21 -118q-12 -39 -82 -39q-31 0 -31 16q0 82 41 197l74 188q-106 -10 -94 -10 q-10 0 -24.5 18.5t-16.5 28.5z" />
<glyph unicode="&#xa6;" horiz-adv-x="339" d="M92 -94q16 63 43 186q18 98 31 199q2 45 10 104q4 8 21 8q18 0 18 -8q0 -37 -37 -243.5t-47 -221.5q-16 -23 -35 -26zM168 973q0 16 25 16q59 0 59 -131q0 -319 -23 -360q-8 -12 -26 -13q-18 0 -19 13q0 35 4.5 106.5t4.5 108.5q0 119 -11 186q0 8 -7 35t-7 39z" />
<glyph unicode="&#xa7;" horiz-adv-x="1167" d="M106 68q0 90 113 170q82 59 195 96q16 6 26 6q14 0 15 -6q0 -10 -37 -23q-90 -33 -162 -90q-90 -72 -90 -149q0 -106 213 -107q150 0 326 58q217 68 260 172q8 18 8 32q0 102 -285 187q-123 37 -174 63q-102 55 -102 137q0 70 47 121q-10 20 -10 45q0 121 217 207 q176 72 319 72q189 -1 189 -107q0 -18 -5 -34q-6 -31 -39.5 -64t-64.5 -33q-10 0 -10 6q0 -2 30.5 38t30.5 71q0 78 -131 78q-113 0 -278 -58q-201 -70 -201 -155q0 -49 78 -82q160 -51 319 -101q221 -82 221 -192q0 -41 -28.5 -89t-61.5 -73q0 -39 -28 -82 q-80 -119 -299 -198q-193 -70 -361 -70q-240 0 -240 154zM461 662q0 -86 133 -146q131 -45 260 -90q150 -55 174 -133q49 63 49 100q0 80 -135 142q-51 23 -270 88q-164 51 -199 92q-12 -29 -12 -53z" />
<glyph unicode="&#xa8;" horiz-adv-x="534" d="M66 762q0 31 60 74t93 43q4 0 8 -2v2v-5q0 8 -30 -34q-16 -41 -33 -82q-25 -55 -55 -56q-14 0 -28.5 21.5t-14.5 38.5zM313 762q0 31 60.5 74t93.5 43q4 0 8 -2v2v-5q0 8 -31 -34l-32 -82q-25 -55 -56 -56q-14 0 -28.5 21.5t-14.5 38.5z" />
<glyph unicode="&#xa9;" horiz-adv-x="1306" d="M84 379q0 242 260 469q250 221 496 221q145 0 247.5 -90.5t102.5 -233.5q0 -240 -251 -463t-495 -223q-145 0 -249 86q-111 90 -111 234zM158 377q0 -123 98 -201q90 -74 217 -74q217 0 428 205t211 422q0 131 -81 215t-212 84q-229 0 -445 -211t-216 -440zM268 367 q0 188 205 374q199 180 391 181q101 0 101 -82q0 -63 -37 -66l-10 8q10 61 10 49q0 72 -74 72q-160 0 -338 -191.5t-178 -353.5q0 -98 96 -98q100 0 264 89t148 89q6 0 6 -6q0 -70 -174 -137q-152 -59 -238 -59q-70 0 -116 30q-55 35 -56 101z" />
<glyph unicode="&#xaa;" horiz-adv-x="491" d="M33 551q0 106 102.5 257t198.5 184q35 14 67 14q74 0 107 -51q6 -10 6 -14q0 -2 -14.5 -6.5t-20.5 -14.5q-49 -80 -49 -240q0 -147 64 -147q45 0 128 99.5t89 99.5q6 -1 6 -11t-12 -28q-90 -145 -170 -187q-37 -18 -74 -18q-125 0 -125 176q0 29 4 61 q-137 -244 -244 -243q-63 0 -63 69zM102 586q0 -43 29 -43q45 0 117 94q100 127 168 299q-8 2 -19 2q-82 0 -170 -104q-125 -152 -125 -248z" />
<glyph unicode="&#xab;" horiz-adv-x="860" d="M174 524q0 23 107 176q94 133 135 183q18 23 39 22q14 0 14 -12q0 -31 -203 -313q199 -252 199 -275q0 -29 -21 -26l-16 8q-45 61 -117 121q-66 53 -131 104q-6 4 -6 12zM461 524q0 23 108 176q92 133 136 183q18 23 38 22q13 0 13 -12q0 -31 -203 -313 q201 -252 201 -275q0 -29 -23 -26l-16 8q-45 61 -115 121q-68 53 -133 104q-6 4 -6 12z" />
<glyph unicode="&#xac;" horiz-adv-x="696" d="M68 289q0 238 143 553q86 190 246 383q180 219 340 291q29 12 55 12q82 0 82 -135q0 -233 -287 -658q-252 -377 -479 -563q70 -180 248 -180q188 0 411 180q14 10 21 10q4 0 4 -4q0 -8 -16 -24q-82 -88 -220.5 -147.5t-261.5 -59.5q-127 0 -211 108q-76 100 -75 234z M145 328q0 -59 13 -111q190 104 444 516t254 625q0 100 -49 100q-31 0 -50.5 -11t-80.5 -58q-180 -141 -334 -410q-82 -143 -135 -315q-61 -188 -62 -336z" />
<glyph unicode="&#xad;" d="M39 221q0 29 72 51q33 12 92 13q72 0 190 -17q53 -8 53 -20q0 -14 -53 -17q-37 -2 -110 -6q-61 -8 -193 -18h-10q-41 -2 -41 14z" />
<glyph unicode="&#xae;" horiz-adv-x="1306" d="M84 379q0 242 260 469q250 221 496 221q145 0 247.5 -90.5t102.5 -233.5q0 -240 -251 -463t-495 -223q-145 0 -249 86q-111 90 -111 234zM158 377q0 -123 98 -201q90 -74 217 -74q158 0 324 119q-76 18 -150 133q-57 90 -86 187q-18 0 -24 6l22 8l14 10l19 -6 q358 49 358 199q0 117 -231 116q-74 0 -203 -38q-121 -35 -197 -74q-162 -193 -161 -385zM285 229q0 90 164 328q139 205 239 305l45 -22q-2 -6 -65 -88q-139 -174 -207 -275q-131 -195 -146 -299q-2 -23 -8 -22q-23 0 -22 73zM381 827q180 72 346 72q98 0 172 -31 q102 -41 102 -125q0 -102 -145 -161q-111 -45 -233 -47q29 -98 73 -175q66 -106 140 -108q276 221 276 477q0 131 -81 215t-212 84q-225 0 -438 -201z" />
<glyph unicode="&#xaf;" d="M39 854q0 29 72 51q33 12 92 13q72 0 190 -17q53 -8 53 -20q0 -14 -53 -17q-37 0 -110 -6q-61 -8 -193 -18h-10q-41 -2 -41 14z" />
<glyph unicode="&#xb0;" horiz-adv-x="579" d="M133 831q0 74 51.5 125.5t124.5 51.5q72 0 124 -51.5t52 -125.5t-52 -125t-124 -51q-74 0 -125 51.5t-51 124.5zM178 831q0 -53 39 -92t92 -39t92 39t39 92t-39 92.5t-92 39.5t-92 -39t-39 -93z" />
<glyph unicode="&#xb1;" horiz-adv-x="897" d="M125 627l10 10q84 10 314 8q-2 39 -7 141q-6 88 -6 142q0 12 15.5 24.5t29.5 12.5l11 -11q10 -82 8 -309q143 -2 315 -14q12 -7 12 -13v-8l-18 -12q-86 0 -309 -2q-4 -279 -15 -301q-6 -12 -16 -12q-4 0 -8 16q-12 43 -12 188v48v53v6q-39 0 -142 -6q-90 -4 -143 -4 q-12 0 -24.5 14t-14.5 29zM229 182l4 2q43 14 199 15q168 0 217 -25q6 -2 6 -6q0 -10 -12 -10q-63 0 -186 -12.5t-185 -12.5q-10 0 -25.5 18.5t-17.5 30.5z" />
<glyph unicode="&#xb2;" horiz-adv-x="641" d="M61 465q0 16 66 39q51 18 111 55q98 61 202 152q141 125 142 192q0 55 -56 55q-96 0 -250 -184q-4 -6 -10 -6t-6 8v2q10 51 78 113.5t121 75.5q35 6 63 6q90 0 90 -82q0 -78 -129 -184q-129 -84 -264 -191q14 0 41 2h41q96 0 131 -26q6 -6 6 -13q0 -2 -4 -4q-4 0 -10 4 q-47 25 -92 25q-74 0 -185 -39q-76 -25 -71 -25q-14 0 -15 25z" />
<glyph unicode="&#xb3;" horiz-adv-x="479" d="M-16 596q0 27 14 27q8 0 8 -9q0 -133 113 -133q94 0 168.5 71t74.5 167q0 90 -81 90q-6 0 -23.5 -6t-26.5 -6q-12 0 -12 10q0 20 31 20h14h15q35 0 91 45.5t56 79.5q0 35 -47 35q-41 0 -84 -26.5t-39 -26.5q-4 0 -4 4q0 6 6 12q18 25 66.5 44.5t81.5 19.5q65 -1 65 -56 q0 -61 -152 -137q82 -49 82 -125q0 -92 -91 -163.5t-185 -71.5q-106 0 -129 71q-12 37 -12 64z" />
<glyph unicode="&#xb4;" horiz-adv-x="452" d="M98 547q0 8 8 14q74 55 216 166q23 18 34 18q19 1 19 -26q0 -25 -17 -39q-23 -18 -128 -81.5t-117 -63.5q-14 0 -15 12z" />
<glyph unicode="&#xb6;" horiz-adv-x="1122" d="M-106 -344q6 12 20 12q180 0 365 375q59 119 213 541q-315 29 -316 231q0 176 199 307q180 119 364 119q37 0 111 4t111 4q49 0 79 -8q84 86 174 86q54 0 66 -27q-6 -6 -38 -10t-54 -18q-111 -66 -260 -400l-250 -602q-141 -330 -236 -385q-10 -6 -24 -6q-12 0 -12 8 q4 10 28 33q111 104 246 506q68 205 137 410q92 244 203 376h-21q-141 0 -323 -381q-82 -168 -207 -520q-76 -211 -211 -407q-180 -266 -332 -266q-31 0 -32 18z" />
<glyph unicode="&#xb7;" horiz-adv-x="294" d="M244 272q0 49 51 50q51 -1 51 -50t-51 -49t-51 49z" />
<glyph unicode="&#xb8;" horiz-adv-x="458" d="M31 -551q0 10 18 16q74 12 148 23q72 20 71 119q0 29 -53 103.5t-53 115.5q0 70 39 124t104 54q23 0 25 -14q-45 -8 -69.5 -45t-24.5 -84q0 -25 59 -100t59 -132q0 -98 -108 -155q-88 -47 -197 -47q-18 0 -18 22z" />
<glyph unicode="&#xb9;" horiz-adv-x="428" d="M74 434q0 2 2 8q74 150 200 455q-6 0 -17 -8t-17 -8t-6 6q0 8 10 18q35 33 104 96h6q29 1 29 -22v-4q-37 -49 -102 -164q-80 -145 -144 -283q-14 -33 -43 -98q-2 -4 -12 -4t-10 8z" />
<glyph unicode="&#xba;" horiz-adv-x="391" d="M49 528q0 117 103 275q-4 23 -5 45q0 74 49.5 143.5t120.5 69.5q47 0 76 -56q23 -47 23 -98q0 -111 -86 -281q31 -18 69 -18q68 0 127.5 53.5t55.5 53.5q14 -1 14 -15q0 -4 -4 -8q-29 -49 -87.5 -84t-113.5 -35q-41 0 -76 21q-94 -150 -194 -150q-72 0 -72 84zM123 534 q0 -41 31 -41q29 0 75 49q42 39 58 74q-68 45 -103 105q-61 -129 -61 -187zM195 858q33 39 65 39q31 0 45 -21v-10q2 -6 2 -10q0 -6 -20 -6q-37 0 -78 -78q27 -78 94 -127q51 129 51 211q0 45 -14 92q-20 66 -53 66q-47 0 -74 -58q-20 -45 -18 -98z" />
<glyph unicode="&#xbb;" horiz-adv-x="860" d="M174 276q0 31 203 314q-201 254 -201 274q0 29 23 27l16 -8q45 -61 113.5 -117.5t134.5 -108.5q6 -4 6 -12q0 -23 -109 -176q-92 -133 -135 -182q-18 -23 -39 -23q-12 0 -12 12zM494 276q0 31 202 314q-201 254 -200 274q0 29 22 27l17 -8q45 -61 113.5 -117.5 t133.5 -108.5q6 -4 6 -12q0 -23 -108 -176q-92 -133 -135 -182q-18 -23 -39 -23q-12 0 -12 12z" />
<glyph unicode="&#xbc;" horiz-adv-x="948" d="M74 434q0 2 2 8q74 150 200 455q-6 0 -17 -8t-17 -8t-6 6q0 8 10 18q35 33 104 96h6q29 1 29 -22v-4q-37 -49 -102 -164q-80 -145 -144 -283q-14 -33 -43 -98q-2 -4 -12 -4t-10 8zM78 -35q0 16 37 96q162 352 592 818q53 59 170 168q12 8 28 8q41 0 41 -25q0 -4 -4 -10 q-51 -49 -151 -150q-494 -500 -637 -800q-12 -25 -43 -109q-4 -10 -17 -10q-16 0 -16 14zM387 209q0 4 74 55q96 68 192 135q109 82 170 162q21 0 21 -39v-22q-16 -16 -84 -125t-68 -121q0 -4 44 -11t44 -20q0 -8 -8 -8q-12 0 -35.5 5t-36.5 5q-16 0 -26 -2 q-49 -86 -125 -254q-10 2 -10 17q0 18 45 114q51 111 55 123q-2 4 -8 4q-45 0 -129 -16t-105 -16q-10 0 -10 14zM492 258q57 -4 159 -4q25 0 127 225q-66 -55 -131 -102q-53 -39 -155 -119z" />
<glyph unicode="&#xbd;" horiz-adv-x="942" d="M74 434q0 2 2 8q74 150 200 455q-6 0 -17 -8t-17 -8t-6 6q0 8 10 18q35 33 104 96h6q29 1 29 -22v-4q-37 -49 -102 -164q-80 -145 -144 -283q-14 -33 -43 -98q-2 -4 -12 -4t-10 8zM78 -35q0 16 37 96q162 352 592 818q53 59 170 168q12 8 28 8q41 0 41 -25q0 -4 -4 -10 q-51 -49 -151 -150q-494 -500 -637 -800q-12 -25 -43 -109q-4 -10 -17 -10q-16 0 -16 14zM309 14q0 16 66 39q51 18 112 56q98 59 201 151q141 125 141 191q0 57 -55 57q-96 0 -250 -186q-4 -6 -8 -7q-8 0 -8 9v4q10 49 78.5 111.5t122.5 74.5q33 8 61 8q90 0 90 -82 q0 -78 -129 -186q-127 -82 -262 -188h41q27 2 41 2q94 0 129 -29q8 -4 8 -10q0 -4 -6 -4q-2 0 -8 2q-49 25 -94 24q-74 0 -185 -37q-74 -27 -71 -26q-14 0 -15 26z" />
<glyph unicode="&#xbe;" horiz-adv-x="989" d="M-16 596q0 27 14 27q8 0 8 -9q0 -133 113 -133q94 0 168.5 71t74.5 167q0 90 -81 90q-6 0 -23.5 -6t-26.5 -6q-12 0 -12 10q0 20 31 20h14h15q35 0 91 45.5t56 79.5q0 35 -47 35q-41 0 -84 -26.5t-39 -26.5q-4 0 -4 4q0 6 6 12q18 25 66.5 44.5t81.5 19.5q65 -1 65 -56 q0 -61 -152 -137q82 -49 82 -125q0 -92 -91 -163.5t-185 -71.5q-106 0 -129 71q-12 37 -12 64zM129 -35q0 16 39 96q162 352 590 818q55 59 172 168q10 8 26 8q43 0 43 -25q0 -4 -6 -10q-49 -49 -149 -150q-494 -500 -639 -800q-10 -25 -41 -109q-4 -10 -17 -10 q-18 0 -18 14zM422 209q0 4 74 55q96 68 192 135q109 82 170 162q21 0 19 -39v-22q-14 -16 -82 -125t-68 -121q0 -4 44 -11t44 -20q0 -8 -8 -8q-12 0 -35.5 5t-36.5 5q-16 0 -26 -2q-49 -86 -125 -254q-10 2 -11 17q0 18 45 114q51 111 56 123q-2 4 -8 4q-45 0 -129 -16 t-105 -16q-10 0 -10 14zM526 258q55 -4 158 -4q25 0 129 225q-66 -55 -131 -102q-53 -39 -156 -119z" />
<glyph unicode="&#xbf;" horiz-adv-x="737" d="M-10 -528q0 102 133 221l246 192q133 109 133 189q0 23 -15 26q4 35 27 35q35 0 35 -49q0 -86 -129 -217q-119 -109 -238 -219q-129 -125 -129 -195q0 -61 66 -61q203 0 407 178q20 23 62 63q8 8 20 9q13 -1 13 -9q0 -10 -15 -28q-18 -29 -78 -78q-211 -178 -395 -178 q-55 0 -96 33q-47 35 -47 88zM514 324q0 49 53 49q51 0 51 -49t-51 -50q-53 0 -53 50z" />
<glyph unicode="&#xc0;" horiz-adv-x="1542" d="M29 84q0 119 100 219q90 90 213 123q205 57 653 55q133 156 269 330q37 53 114 154q8 10 19 10q27 0 26 -25q0 -6 -4 -14q-12 -18 -127 -170q-133 -178 -217 -287q102 -6 201 -28q57 260 149 487q23 63 80 180q8 14 55.5 43t63.5 29q18 -1 18 -19q0 -6 -10 -22 q-174 -291 -289 -717q92 -29 93 -53q0 -20 -23 -21q-2 0 -37 13.5t-43 15.5q-61 -246 -61 -389q0 -70 20 -70q18 0 50 26t38 26q18 0 19 -23q0 -23 -40 -46.5t-67 -23.5q-78 0 -78 129q0 131 52 383q-104 14 -240 17q-63 -76 -164 -185q-164 -176 -252 -241 q-158 -115 -323 -115q-111 0 -178 49q-80 53 -80 160zM84 88q0 -68 57 -102q47 -31 121 -31q156 0 305 102q96 66 244 222q61 61 127 137h-57q-350 0 -533 -47q-102 -29 -178 -101q-86 -82 -86 -180zM1376 1468q0 27 19 27q14 0 35 -18q82 -55 217 -166q6 -9 6 -15 q0 -12 -13 -12q-10 0 -117.5 64.5t-129.5 83.5q-16 12 -17 36z" />
<glyph unicode="&#xc1;" horiz-adv-x="1536" d="M29 84q0 119 100 219q90 90 213 123q205 57 653 55q133 156 269 330q37 53 114 154q8 10 19 10q27 0 26 -25q0 -6 -4 -14q-12 -18 -127 -170q-133 -178 -217 -287q102 -6 201 -28q57 260 147 487q25 63 82 180q8 14 55.5 43t63.5 29q18 -1 18 -19q0 -6 -10 -22 q-174 -291 -289 -717q92 -29 93 -53q0 -20 -23 -21q-2 0 -37 13.5t-45 15.5q-59 -246 -59 -389q0 -70 20 -70q18 0 50 26t38 26q18 0 19 -23q0 -23 -40 -46.5t-67 -23.5q-78 0 -78 129q0 131 52 383q-104 14 -242 17q-61 -76 -162 -185q-164 -176 -252 -241 q-158 -115 -323 -115q-111 0 -178 49q-80 53 -80 160zM84 88q0 -68 57 -102q47 -31 121 -31q156 0 305 102q96 66 244 222q61 61 127 137h-57q-352 0 -533 -47q-102 -29 -178 -101q-86 -82 -86 -180zM1579 1258q0 8 8 14q74 55 216 166q23 18 34 18q19 1 19 -26 q0 -25 -17 -39q-23 -18 -128 -81.5t-117 -63.5q-14 0 -15 12z" />
<glyph unicode="&#xc2;" horiz-adv-x="1536" d="M29 84q0 119 100 219q90 90 213 123q205 57 653 55q133 156 269 330q37 53 114 154q8 10 19 10q27 0 26 -25q0 -6 -4 -14q-12 -18 -127 -170q-133 -178 -217 -287q102 -6 201 -28q57 260 147 487q25 63 82 180q8 14 55.5 43t63.5 29q18 -1 18 -19q0 -6 -10 -22 q-174 -291 -289 -717q92 -29 93 -53q0 -20 -23 -21q-2 0 -37 13.5t-45 15.5q-59 -246 -59 -389q0 -70 20 -70q18 0 50 26t38 26q18 0 19 -23q0 -23 -40 -46.5t-67 -23.5q-78 0 -78 129q0 131 52 383q-104 14 -242 17q-61 -76 -162 -185q-164 -176 -252 -241 q-158 -115 -323 -115q-111 0 -178 49q-80 53 -80 160zM84 88q0 -68 57 -102q47 -31 121 -31q156 0 305 102q96 66 244 222q61 61 127 137h-57q-352 0 -533 -47q-102 -29 -178 -101q-86 -82 -86 -180zM1430 1233q0 14 91 90t111 78l8 -4q59 -63 187 -160l8 -14l-6 -11 q-31 0 -115 54q-76 49 -102 77q-152 -125 -170 -124q-12 0 -12 14z" />
<glyph unicode="&#xc3;" horiz-adv-x="1517" d="M29 84q0 119 100 219q90 90 213 123q205 57 653 55q133 156 269 330q37 53 114 154q8 10 19 10q27 0 26 -25q0 -6 -4 -14q-12 -18 -127 -170q-133 -178 -217 -287q102 -6 201 -28q57 260 149 487q23 63 80 180q8 14 55.5 43t63.5 29q18 -1 18 -19q0 -6 -10 -22 q-174 -291 -289 -717q92 -29 93 -53q0 -20 -23 -21q-2 0 -37 13.5t-43 15.5q-61 -246 -61 -389q0 -70 20 -70q18 0 50 26t38 26q18 0 19 -23q0 -23 -40 -46.5t-67 -23.5q-78 0 -78 129q0 131 52 383q-104 14 -240 17q-63 -76 -164 -185q-164 -176 -252 -241 q-158 -115 -323 -115q-111 0 -178 49q-80 53 -80 160zM84 88q0 -68 57 -102q47 -31 121 -31q156 0 305 102q96 66 244 222q61 61 127 137h-57q-350 0 -533 -47q-102 -29 -178 -101q-86 -82 -86 -180zM1341 1286q0 16 43 53q35 31 60 45q41 25 88 25q39 0 114.5 -25.5 t114.5 -25.5q57 0 99 49q14 2 14 -10q0 -35 -96 -99q-29 -20 -68 -20q-41 0 -119 31.5t-116 31.5q-41 0 -80 -30.5t-52 -28.5q-2 0 -2 4z" />
<glyph unicode="&#xc4;" horiz-adv-x="1536" d="M29 84q0 119 100 219q90 90 213 123q205 57 653 55q133 156 269 330q37 53 114 154q8 10 19 10q27 0 26 -25q0 -6 -4 -14q-12 -18 -127 -170q-133 -178 -217 -287q102 -6 201 -28q57 260 147 487q25 63 82 180q8 14 55.5 43t63.5 29q18 -1 18 -19q0 -6 -10 -22 q-174 -291 -289 -717q92 -29 93 -53q0 -20 -23 -21q-2 0 -37 13.5t-45 15.5q-59 -246 -59 -389q0 -70 20 -70q18 0 50 26t38 26q18 0 19 -23q0 -23 -40 -46.5t-67 -23.5q-78 0 -78 129q0 131 52 383q-104 14 -242 17q-61 -76 -162 -185q-164 -176 -252 -241 q-158 -115 -323 -115q-111 0 -178 49q-80 53 -80 160zM84 88q0 -68 57 -102q47 -31 121 -31q156 0 305 102q96 66 244 222q61 61 127 137h-57q-352 0 -533 -47q-102 -29 -178 -101q-86 -82 -86 -180zM1440 1319q0 31 60 74t93 43q4 0 8 -2v2v-5q0 8 -30 -34q-16 -41 -33 -82 q-25 -55 -55 -56q-14 0 -28.5 21.5t-14.5 38.5zM1687 1319q0 31 60.5 74t93.5 43q4 0 8 -2v2v-5q0 8 -31 -34l-32 -82q-25 -55 -56 -56q-14 0 -28.5 21.5t-14.5 38.5z" />
<glyph unicode="&#xc5;" horiz-adv-x="1536" d="M35 84q0 117 98 215q88 88 209 121q209 57 655 55q205 238 385 486q-23 20 -22 59q0 63 58.5 142t121.5 79q39 0 63.5 -32.5t24.5 -75.5q0 -53 -31.5 -106.5t-78.5 -76.5q-109 -238 -185 -522q94 -31 94 -49q0 -14 -14 -14q-6 0 -12 4q-31 16 -76 26q-61 -250 -61 -389 q0 -84 28 -84q20 0 52 24.5t34 24.5q12 0 13 -14q0 -20 -38 -41.5t-61 -21.5q-72 0 -71 122q0 133 51 390q-106 14 -252 16q-61 -76 -164 -186q-164 -176 -250 -240q-156 -113 -321 -113q-106 0 -172 45q-78 53 -78 156zM76 88q0 -72 59 -108q49 -31 125 -31q158 0 309 102 q96 66 246 221q65 70 137 152h-71q-348 2 -537 -49q-104 -29 -182 -103q-86 -84 -86 -184zM1061 473q111 -4 219 -31q58 265 152 498l-19 4l-2 -4q-63 -100 -170 -238q-90 -115 -180 -229zM1427 1049q0 -61 46 -62q47 0 79 49q27 43 27 92q0 74 -45 74q-41 0 -74 -55 t-33 -98z" />
<glyph unicode="&#xc6;" horiz-adv-x="1953" d="M35 84q0 236 424 375q268 88 622 119q231 268 437 368q213 102 559 103q166 0 239 -19q35 -9 35 -29q0 -25 -49 -24q-37 18 -139 18q-262 0 -344 -49q-45 -29 -316 -330q6 -8 17 -8q55 0 165.5 8.5t167.5 8.5q139 0 140 -15q0 -12 -60 -24q-47 -8 -262 -23 q-162 -10 -254 -53q-39 -16 -125 -174t-86 -207q0 -117 180 -117q184 0 478 129q82 39 174 80q-2 -2 -10 -16q-66 -90 -316 -182q-229 -82 -364 -82q-205 0 -205 163q0 174 205 439q-82 -4 -244 -17q-160 -197 -248 -290q-160 -174 -250 -240q-156 -113 -319 -113 q-109 0 -174 45q-78 53 -78 156zM76 88q0 -72 59 -108q51 -31 127 -31q150 0 303 100q117 76 256 227q109 125 215 250q-328 -39 -565 -116q-395 -127 -395 -322zM1143 575q76 10 246 19q29 29 81 90q71 86 218 254q-6 10 -21 23q-131 -41 -287 -158q-147 -111 -237 -228z " />
<glyph unicode="&#xc7;" horiz-adv-x="1056" d="M-10 178q0 168 137 367q162 236 420 391q276 170 545 170q231 0 231 -160q0 -139 -154 -256q-143 -113 -288 -112q-150 0 -150 114q0 82 37 82q14 0 14 -18q0 -6 -2 -18.5t-2 -18.5q0 -80 105 -80q109 0 246 104.5t137 206.5q0 100 -170 101q-35 0 -68 -4 q-176 -18 -401.5 -148.5t-374.5 -304.5q-166 -197 -166 -377q0 -113 76 -172q68 -53 184 -53q373 0 723 291q8 6 16 6q25 0 25 -27q0 -10 -8 -18q-150 -137 -354 -234q-225 -106 -408 -106q-150 0 -242 61q-109 72 -108 213zM-8 -563q0 10 18 16q74 12 148 23q72 20 71 118 q0 29 -53 104t-53 116q0 68 39 119t104 51q23 0 25 -15q-94 -16 -94 -121q0 -25 59 -99.5t59 -131.5q0 -98 -108 -156q-88 -47 -197 -47q-18 0 -18 23z" />
<glyph unicode="&#xc8;" horiz-adv-x="974" d="M61 485q0 51 43 66q16 6 117 20q164 223 416 373q272 162 532 162q230 0 230 -160q0 -80 -66 -170q-59 -78 -137 -125q-14 -8 -27 -8q-35 0 -34 33q0 14 16 29q190 147 190 245q0 100 -170 101q-211 0 -469 -152q-231 -135 -380 -317q174 20 323 20q309 0 309 -57 q0 -27 -28 -27q-27 0 -101.5 11.5t-115.5 11.5q-190 0 -445 -37q-102 -154 -102 -285q0 -123 92 -186q80 -57 209 -58q313 0 684 308q8 6 14 6q27 0 27 -27q0 -10 -8 -18q-152 -137 -357 -234q-223 -106 -407 -106q-150 0 -242 61q-106 72 -106 213t100 311 q-100 -18 -92 -18q-14 0 -15 14zM965 1368q0 25 20 25q12 0 33 -17q82 -55 217 -166q6 -8 6 -14q0 -12 -12 -12q-10 0 -117.5 64.5t-127 79.5t-19.5 40z" />
<glyph unicode="&#xc9;" horiz-adv-x="1200" d="M61 485q0 51 43 66q16 6 117 20q164 223 416 373q272 162 532 162q230 0 230 -160q0 -80 -66 -170q-59 -78 -137 -125q-14 -8 -27 -8q-35 0 -34 33q0 14 16 29q190 147 190 245q0 100 -170 101q-211 0 -469 -152q-231 -135 -380 -317q174 20 323 20q309 0 309 -57 q0 -27 -28 -27q-27 0 -101.5 11.5t-115.5 11.5q-190 0 -445 -37q-102 -154 -102 -285q0 -123 92 -186q80 -57 209 -58q313 0 684 308q8 6 14 6q27 0 27 -27q0 -10 -8 -18q-152 -137 -357 -234q-223 -106 -407 -106q-150 0 -242 61q-106 72 -106 213t100 311 q-100 -18 -92 -18q-14 0 -15 14zM1167 1206q0 6 7 13q76 57 215 167q23 16 34 17q21 0 21 -25t-20.5 -41t-123.5 -80q-109 -63 -120 -63q-12 0 -13 12z" />
<glyph unicode="&#xca;" horiz-adv-x="1202" d="M61 485q0 51 43 66q16 6 117 20q164 223 416 373q272 162 532 162q230 0 230 -160q0 -80 -66 -170q-59 -78 -137 -125q-14 -8 -27 -8q-35 0 -34 33q0 14 16 29q190 147 190 245q0 100 -170 101q-211 0 -469 -152q-231 -135 -380 -317q174 20 323 20q309 0 309 -57 q0 -27 -28 -27q-27 0 -101.5 11.5t-115.5 11.5q-190 0 -445 -37q-102 -154 -102 -285q0 -123 92 -186q80 -57 209 -58q313 0 684 308q8 6 14 6q27 0 27 -27q0 -10 -8 -18q-152 -137 -357 -234q-223 -106 -407 -106q-150 0 -242 61q-106 72 -106 213t100 311 q-100 -18 -92 -18q-14 0 -15 14zM973 1178q0 16 90 90.5t111 79.5l10 -5q57 -66 186 -159l8 -15l-8 -12q-29 2 -113 55q-78 47 -104 76q-150 -125 -170 -125q-10 0 -10 15z" />
<glyph unicode="&#xcb;" horiz-adv-x="1202" d="M61 485q0 51 43 66q16 6 117 20q164 223 416 373q272 162 532 162q230 0 230 -160q0 -80 -66 -170q-59 -78 -137 -125q-14 -8 -27 -8q-35 0 -34 33q0 14 16 29q190 147 190 245q0 100 -170 101q-211 0 -469 -152q-231 -135 -380 -317q174 20 323 20q309 0 309 -57 q0 -27 -28 -27q-27 0 -101.5 11.5t-115.5 11.5q-190 0 -445 -37q-102 -154 -102 -285q0 -123 92 -186q80 -57 209 -58q313 0 684 308q8 6 14 6q27 0 27 -27q0 -10 -8 -18q-152 -137 -357 -234q-223 -106 -407 -106q-150 0 -242 61q-106 72 -106 213t100 311 q-100 -18 -92 -18q-14 0 -15 14zM988 1235q0 31 60 74t93 43q4 0 8 -2v2v-5q0 8 -30 -34q-16 -41 -33 -82q-25 -55 -55 -56q-14 0 -28.5 21.5t-14.5 38.5zM1235 1235q0 31 60.5 74t93.5 43q4 0 8 -2v2v-5q0 8 -31 -34l-32 -82q-25 -55 -56 -56q-14 0 -28.5 21.5t-14.5 38.5z " />
<glyph unicode="&#xcc;" horiz-adv-x="935" d="M10 -37q0 16 21 25q14 6 125 35q166 41 315 63q23 172 172 481q135 281 262 457h-35q-119 2 -204 -8q-256 -31 -256 -98q0 -29 57 -62t57 -45q0 -16 -20 -16q-6 0 -15 2q-164 78 -163 137q0 45 88 88q117 55 381 55q70 0 147 -4q25 35 100 35q31 0 31 -12q0 -4 -20 -31 q117 -8 235 -25q25 -2 72 -10q22 -6 22 -22t-22 -17l-6 2q-111 12 -336 29q-184 -233 -295 -442q-160 -303 -195 -486q104 12 189 12q186 0 225 -43q12 -14 12 -40q0 -35 -20 -35q-35 0 -122 19.5t-130 19.5q-74 0 -160 -9q2 -59 41 -59q18 0 51 22.5t39 22.5q16 0 17 -18 q0 -25 -42 -46.5t-69 -21.5q-82 0 -90 96q-51 -6 -227 -43q-158 -35 -207 -34q-25 0 -25 26zM856 1341q0 25 18 25q14 0 35 -16q82 -55 217 -166q7 -9 7 -15q0 -12 -13 -12q-10 0 -117.5 64.5t-127 80t-19.5 39.5z" />
<glyph unicode="&#xcd;" horiz-adv-x="935" d="M10 -37q0 16 21 25q14 6 125 35q166 41 315 63q23 172 172 481q135 281 262 457h-35q-119 2 -204 -8q-256 -31 -256 -98q0 -29 57 -62t57 -45q0 -16 -20 -16q-6 0 -15 2q-164 78 -163 137q0 45 88 88q117 55 381 55q70 0 147 -4q25 35 100 35q31 0 31 -12q0 -4 -20 -31 q117 -8 235 -25q25 -2 72 -10q22 -6 22 -22t-22 -17l-6 2q-111 12 -336 29q-184 -233 -295 -442q-160 -303 -195 -486q104 12 189 12q186 0 225 -43q12 -14 12 -40q0 -35 -20 -35q-35 0 -122 19.5t-130 19.5q-74 0 -160 -9q2 -59 41 -59q18 0 51 22.5t39 22.5q16 0 17 -18 q0 -25 -42 -46.5t-69 -21.5q-82 0 -90 96q-53 -6 -227 -43q-158 -35 -207 -34q-25 0 -25 26zM1071 1233q0 8 8 14q74 55 216 166q23 18 34 18q19 1 19 -26q0 -25 -17 -39q-23 -18 -128 -81.5t-117 -63.5q-14 0 -15 12z" />
<glyph unicode="&#xce;" horiz-adv-x="935" d="M10 -37q0 16 21 25q14 6 125 35q166 41 315 63q23 172 172 481q135 281 262 457h-35q-119 2 -204 -8q-256 -31 -256 -98q0 -29 57 -62t57 -45q0 -16 -20 -16q-6 0 -15 2q-164 78 -163 137q0 45 88 88q117 55 381 55q70 0 147 -4q25 35 100 35q31 0 31 -12q0 -4 -20 -31 q117 -8 235 -25q25 -2 72 -10q22 -6 22 -22t-22 -17l-6 2q-111 12 -336 29q-184 -233 -295 -442q-160 -303 -195 -486q104 12 189 12q186 0 225 -43q12 -14 12 -40q0 -35 -20 -35q-35 0 -122 19.5t-130 19.5q-74 0 -160 -9q2 -59 41 -59q18 0 51 22.5t39 22.5q16 0 17 -18 q0 -25 -42 -46.5t-69 -21.5q-82 0 -90 96q-51 -6 -227 -43q-158 -35 -207 -34q-25 0 -25 26zM823 1167q0 14 90.5 90t110.5 78l10 -4q57 -63 185 -160l8 -14l-6 -10q-31 0 -111 51t-106 80q-152 -125 -170 -125q-10 0 -11 14z" />
<glyph unicode="&#xcf;" horiz-adv-x="935" d="M10 -37q0 16 21 25q14 6 125 35q166 41 315 63q23 172 172 481q135 281 262 457h-35q-119 2 -204 -8q-256 -31 -256 -98q0 -29 57 -62t57 -45q0 -16 -20 -16q-6 0 -15 2q-164 78 -163 137q0 45 88 88q117 55 381 55q70 0 147 -4q25 35 100 35q31 0 31 -12q0 -4 -20 -31 q117 -8 235 -25q25 -2 72 -10q22 -6 22 -22t-22 -17l-6 2q-111 12 -336 29q-184 -233 -295 -442q-160 -303 -195 -486q104 12 189 12q186 0 225 -43q12 -14 12 -40q0 -35 -20 -35q-35 0 -122 19.5t-130 19.5q-74 0 -160 -9q2 -59 41 -59q18 0 51 22.5t39 22.5q16 0 17 -18 q0 -25 -42 -46.5t-69 -21.5q-82 0 -90 96q-53 -6 -227 -43q-158 -35 -207 -34q-25 0 -25 26zM873 1217q0 31 60 74t93 43q4 0 8 -2v2v-5q0 8 -30 -34q-16 -41 -33 -82q-25 -55 -55 -56q-14 0 -28.5 21.5t-14.5 38.5zM1120 1217q0 31 60.5 74t93.5 43q4 0 8 -2v2v-5 q0 8 -31 -34l-32 -82q-25 -55 -56 -56q-14 0 -28.5 21.5t-14.5 38.5z" />
<glyph unicode="&#xd0;" horiz-adv-x="1536" d="M-35 113q0 135 129 221q111 74 254 78q33 80 72 159q-109 -55 -219 -110q-16 0 -17 35q0 16 5.5 19t64.5 32q111 53 197 86q68 139 133 254q18 37 63 104q31 39 101 39q20 0 20 -8l-4 -8q-131 -180 -227 -348q201 70 258 69q14 0 14 -12q0 -10 -10 -12q-29 -6 -86 -21 q-96 -27 -205 -76q-55 -102 -105 -202q561 -8 760 -279q139 96 228 221q104 147 104 295q0 233 -262 357q-203 96 -467 96q-350 0 -619 -154q-14 -8 -22 -8q-20 0 -21 25q0 39 60 71q90 49 278 80q160 27 293 27q301 0 529 -105q297 -137 297 -401q0 -162 -115 -320 q-96 -135 -252 -235q12 -23 12 -29q0 -25 -14 -24q-2 0 -27 37q-307 -188 -708 -189q-43 0 -80 2q-139 8 -254 55q-158 66 -158 179zM39 109q0 -96 129 -152q94 -41 209 -45q23 -2 51 -2q396 0 705 201q-98 121 -318 198q-195 68 -373 68q-29 0 -57 -2q-127 -264 -127 -357 q0 -6 2 -16t2 -16q0 -20 -14 -21q-27 0 -27 49q0 94 109 355q-291 -43 -291 -260z" />
<glyph unicode="&#xd1;" horiz-adv-x="1810" d="M14 610q0 168 234 330q176 121 385 186q172 51 315 52q338 0 338 -267q0 -186 -149 -469q117 139 233 281q176 190 277 190q149 0 149 -143q0 -121 -118.5 -381t-118.5 -336q0 -61 57 -61q33 0 81 34.5t56 34.5t8 -10q0 -41 -56 -71.5t-101 -30.5q-109 0 -109 114 q0 84 61 226q74 166 78 178q43 102 66.5 185t23.5 130q0 72 -51 72q-25 0 -63 -16q-147 -68 -371 -349q-164 -207 -299 -432q-33 -59 -100 -143q-45 0 -45 45q0 14 6 25q113 137 250 444q147 330 147 479q0 221 -262 221q-125 0 -285 -55q-184 -61 -356 -180 q-227 -156 -227 -299q0 -117 157 -117q84 0 228 41q14 4 20 4q16 0 16 -12q0 -35 -106 -59q-84 -20 -139 -21q-229 0 -230 180zM1399 1108q0 31 86 82q35 20 76 20q35 0 98 -21.5t96 -21.5q49 0 84 45q12 0 12 -8q0 -31 -79 -86q-27 -18 -58 -18q-35 0 -101.5 27.5 t-101.5 27.5t-67.5 -26.5t-42.5 -26.5q-2 2 -2 6z" />
<glyph unicode="&#xd2;" horiz-adv-x="1323" d="M0 494q0 176 172 325q135 117 334 189q213 78 426 77q199 0 334 -73q170 -95 170 -277q0 -145 -115 -309q-145 -211 -418.5 -350t-529.5 -139q-268 0 -269 215q0 66 31 143q-135 63 -135 199zM47 496q0 -121 107 -158q94 166 283.5 341t359.5 245q86 35 147 39h4 q25 2 25 -19q0 -20 -29 -26q-78 -12 -141 -48q-76 -41 -170 -114q-111 -84 -223 -201q-150 -154 -174 -238q39 -8 75 -8q182 0 367 172q74 68 72 68q14 0 14 -17q-80 -115 -203 -186q-131 -78 -264 -78q-43 0 -76 11q-35 -68 -35 -127q0 -82 59.5 -127t143.5 -45 q246 0 492 147q229 137 376 350q111 160 111 289q0 143 -131 215q-104 57 -262 57q-205 0 -438 -92q-174 -70 -308 -170q-182 -141 -182 -280zM989 1346q0 27 19 26q14 0 34 -16q82 -57 218 -168q6 -6 6 -14q0 -10 -13 -11q-10 0 -117.5 63.5t-129.5 82.5q-16 12 -17 37z " />
<glyph unicode="&#xd3;" horiz-adv-x="1323" d="M0 494q0 176 172 325q135 117 334 189q213 78 426 77q199 0 334 -73q170 -95 170 -277q0 -145 -115 -309q-145 -211 -418.5 -350t-529.5 -139q-268 0 -269 215q0 66 31 143q-135 63 -135 199zM47 496q0 -121 107 -158q94 166 283.5 341t359.5 245q86 35 147 39h4 q25 2 25 -19q0 -20 -29 -26q-78 -12 -141 -48q-76 -41 -170 -114q-111 -84 -223 -201q-150 -154 -174 -238q39 -8 75 -8q182 0 367 172q74 68 72 68q14 0 14 -17q-80 -115 -203 -186q-131 -78 -264 -78q-43 0 -76 11q-35 -68 -35 -127q0 -82 59.5 -127t143.5 -45 q246 0 492 147q229 137 376 350q111 160 111 289q0 143 -131 215q-104 57 -262 57q-205 0 -438 -92q-174 -70 -308 -170q-182 -141 -182 -280zM1073 1168q0 8 8 14q74 55 216 166q23 18 34 18q19 1 19 -26q0 -25 -17 -39q-23 -18 -128 -81.5t-117 -63.5q-14 0 -15 12z" />
<glyph unicode="&#xd4;" horiz-adv-x="1323" d="M0 494q0 176 172 325q135 117 334 189q213 78 426 77q199 0 334 -73q170 -95 170 -277q0 -145 -115 -309q-145 -211 -418.5 -350t-529.5 -139q-268 0 -269 215q0 66 31 143q-135 63 -135 199zM47 496q0 -121 107 -158q94 166 283.5 341t359.5 245q86 35 147 39h4 q25 2 25 -19q0 -20 -29 -26q-78 -12 -141 -48q-76 -41 -170 -114q-111 -84 -223 -201q-150 -154 -174 -238q39 -8 75 -8q182 0 367 172q74 68 72 68q14 0 14 -17q-80 -115 -203 -186q-131 -78 -264 -78q-43 0 -76 11q-35 -68 -35 -127q0 -82 59.5 -127t143.5 -45 q246 0 492 147q229 137 376 350q111 160 111 289q0 143 -131 215q-104 57 -262 57q-205 0 -438 -92q-174 -70 -308 -170q-182 -141 -182 -280zM883 1145q0 14 90 90t110 80l9 -4q59 -66 186 -162l8 -12l-6 -13q-31 2 -110.5 52.5t-106.5 78.5q-152 -125 -170 -125 q-10 0 -10 15z" />
<glyph unicode="&#xd5;" horiz-adv-x="1323" d="M0 494q0 176 172 325q135 117 334 189q213 78 426 77q199 0 334 -73q170 -95 170 -277q0 -145 -115 -309q-145 -211 -418.5 -350t-529.5 -139q-268 0 -269 215q0 66 31 143q-135 63 -135 199zM47 496q0 -121 107 -158q94 166 283.5 341t359.5 245q86 35 147 39h4 q25 2 25 -19q0 -20 -29 -26q-78 -12 -141 -48q-76 -41 -170 -114q-111 -84 -223 -201q-150 -154 -174 -238q39 -8 75 -8q182 0 367 172q74 68 72 68q14 0 14 -17q-80 -115 -203 -186q-131 -78 -264 -78q-43 0 -76 11q-35 -68 -35 -127q0 -82 59.5 -127t143.5 -45 q246 0 492 147q229 137 376 350q111 160 111 289q0 143 -131 215q-104 57 -262 57q-205 0 -438 -92q-174 -70 -308 -170q-182 -141 -182 -280zM881 1184q0 31 86 82q35 20 75 20q35 0 98.5 -21.5t96.5 -21.5q49 0 84 45q12 0 12 -8q0 -31 -80 -86q-27 -18 -57 -18 q-35 0 -101.5 27.5t-101.5 27.5t-67.5 -26.5t-42.5 -26.5q-2 2 -2 6z" />
<glyph unicode="&#xd6;" horiz-adv-x="1323" d="M0 494q0 176 172 325q135 117 334 189q213 78 426 77q199 0 334 -73q170 -95 170 -277q0 -145 -115 -309q-145 -211 -418.5 -350t-529.5 -139q-268 0 -269 215q0 66 31 143q-135 63 -135 199zM47 496q0 -121 107 -158q94 166 283.5 341t359.5 245q86 35 147 39h4 q25 2 25 -19q0 -20 -29 -26q-78 -12 -141 -48q-76 -41 -170 -114q-111 -84 -223 -201q-150 -154 -174 -238q39 -8 75 -8q182 0 367 172q74 68 72 68q14 0 14 -17q-80 -115 -203 -186q-131 -78 -264 -78q-43 0 -76 11q-35 -68 -35 -127q0 -82 59.5 -127t143.5 -45 q246 0 492 147q229 137 376 350q111 160 111 289q0 143 -131 215q-104 57 -262 57q-205 0 -438 -92q-174 -70 -308 -170q-182 -141 -182 -280zM885 1215q0 31 60 74t93 43q4 0 8 -2v2v-5q0 8 -30 -34q-16 -41 -33 -82q-25 -55 -55 -56q-14 0 -28.5 21.5t-14.5 38.5z M1132 1215q0 31 60.5 74t93.5 43q4 0 8 -2v2v-5q0 8 -31 -34l-32 -82q-25 -55 -56 -56q-14 0 -28.5 21.5t-14.5 38.5z" />
<glyph unicode="&#xd7;" horiz-adv-x="569" d="M92 109q0 37 168 210q-68 129 -67 164q0 18 32 19q12 0 19 -13q23 -41 51 -137q43 47 84 92q68 68 90 68l4 -4q-4 -18 -168 -182q14 -49 60 -103q51 -59 96 -59q10 0 24.5 7t22.5 7l6 -6q0 -18 -30.5 -36.5t-53.5 -18.5q-49 0 -100 65q-41 51 -60 109q-45 -66 -143 -187 q-10 -10 -18 -10q-16 0 -17 15z" />
<glyph unicode="&#xd8;" horiz-adv-x="1605" d="M43 502q0 143 290 322.5t701 179.5q152 0 264 -33q242 223 326 223q23 0 25 -8q-6 -10 -281 -240q164 -72 164 -213q0 -102 -90 -231q-236 -342 -692 -535q-139 -57 -267 -57q-53 0 -100 10q-156 -221 -199 -369q-12 -43 -12 -57q0 -2 -2 -2q-14 0 -28.5 13.5t-14.5 25.5 q0 119 213 403q-158 61 -158 242q0 61 27 127q-166 78 -166 199zM78 494q0 -96 145 -154q68 129 221 256q139 115 289 178q86 37 113 37q18 0 18 -16q0 -12 -14 -17q-29 -6 -86 -26q-141 -59 -277 -179q-141 -127 -202 -256q76 -20 141 -20q41 0 41 -12q0 -20 -88 -21 q-63 0 -109 15q-20 -53 -20 -115q0 -147 117 -197q182 236 477 547q236 250 416 420q-88 18 -203 18q-170 0 -357 -37q-211 -45 -333 -118q-289 -174 -289 -303zM408 -45q33 -8 71 -8q111 0 262 63q193 78 365 211q184 139 293 299q86 129 86 217q0 125 -154 178 q-616 -539 -923 -960z" />
<glyph unicode="&#xd9;" horiz-adv-x="1314" d="M-33 481q0 47 27 105q84 180 324.5 326.5t443.5 146.5q201 0 201 -164q0 -80 -58 -201q-70 -135 -196 -411q-49 -129 -50 -193q0 -59 43 -59q106 0 293 231q135 170 283 410q31 49 86 149q33 76 109 215q12 16 46.5 28.5t57.5 12.5q18 0 18 -10q0 -4 -4 -8 q-197 -340 -274 -551q-117 -313 -117 -502q0 -123 55 -123q20 0 52 29t39 29q18 0 18 -19q0 -27 -54.5 -58.5t-82.5 -31.5q-96 0 -97 154q0 176 125 546q-123 -164 -243 -329q-188 -231 -293 -232q-131 0 -131 127q0 109 98 324q80 156 158 313q43 92 43 154q0 121 -152 121 q-168 0 -374.5 -122t-274.5 -272q-37 -80 -37 -129q0 -63 72 -63q16 0 48 6t46 6q16 0 16 -10q0 -25 -57 -41q-43 -10 -78 -10q-129 0 -129 106zM1012 1239q0 27 20 27q12 0 35 -17q80 -57 215 -168q8 -6 8 -14q0 -10 -14 -10q-10 0 -116.5 63.5t-129.5 81.5q-18 12 -18 37z " />
<glyph unicode="&#xda;" horiz-adv-x="1314" d="M-33 481q0 47 27 105q84 180 324.5 326.5t443.5 146.5q201 0 201 -164q0 -80 -58 -201q-70 -135 -196 -411q-49 -129 -50 -193q0 -59 43 -59q106 0 293 231q135 170 283 410q31 49 86 149q33 76 109 215q12 16 46.5 28.5t57.5 12.5q18 0 18 -10q0 -4 -4 -8 q-197 -340 -274 -551q-117 -313 -117 -502q0 -123 55 -123q20 0 52 29t39 29q18 0 18 -19q0 -27 -54.5 -58.5t-82.5 -31.5q-96 0 -97 154q0 176 125 546q-123 -164 -243 -329q-188 -231 -293 -232q-131 0 -131 127q0 109 98 324q80 156 158 313q43 92 43 154q0 121 -152 121 q-168 0 -374.5 -122t-274.5 -272q-37 -80 -37 -129q0 -63 72 -63q16 0 48 6t46 6q16 0 16 -10q0 -25 -57 -41q-43 -10 -78 -10q-129 0 -129 106zM1092 1073q0 8 6 12q76 57 217 168q23 18 35 19q18 0 18 -27q0 -25 -16 -39q-23 -18 -128.5 -81.5t-117.5 -63.5q-14 0 -14 12z " />
<glyph unicode="&#xdb;" horiz-adv-x="1411" d="M-33 481q0 47 27 105q84 180 328 327q238 145 440 146q201 0 201 -164q0 -80 -58 -201q-70 -135 -196 -411q-49 -129 -50 -193q0 -59 43 -59q106 0 293 231q135 170 283 410q31 49 86 149q33 76 109 215q12 16 46.5 28.5t57.5 12.5q18 0 18 -10q0 -4 -4 -8 q-197 -340 -274 -551q-115 -313 -115 -502q0 -123 53 -123q20 0 52 29t39 29q18 0 18 -19q0 -27 -54.5 -58.5t-82.5 -31.5q-96 0 -97 154q0 176 125 549q-123 -166 -243 -332q-188 -231 -293 -232q-131 0 -131 127q0 109 98 324q80 156 158 313q43 92 43 154q0 121 -152 121 q-168 0 -374.5 -122t-274.5 -272q-37 -80 -37 -129q0 -63 72 -63q16 0 48 6t46 6q16 0 16 -10q0 -25 -57 -41q-43 -10 -78 -10q-129 0 -129 106zM995 1044q0 14 90.5 90t110.5 78l10 -4q57 -63 185 -159l8 -15l-6 -10q-31 0 -111 51t-106 80q-152 -125 -170 -125 q-10 0 -11 14z" />
<glyph unicode="&#xdc;" horiz-adv-x="1411" d="M-33 481q0 47 27 105q84 180 328 327q238 145 440 146q201 0 201 -164q0 -80 -58 -201q-70 -135 -196 -411q-49 -129 -50 -193q0 -59 43 -59q106 0 293 231q135 170 283 410q31 49 86 149q33 76 109 215q12 16 46.5 28.5t57.5 12.5q18 0 18 -10q0 -4 -4 -8 q-197 -340 -274 -551q-115 -313 -115 -502q0 -123 53 -123q20 0 52 29t39 29q18 0 18 -19q0 -27 -54.5 -58.5t-82.5 -31.5q-96 0 -97 154q0 176 125 549q-123 -166 -243 -332q-188 -231 -293 -232q-131 0 -131 127q0 109 98 324q80 156 158 313q43 92 43 154q0 121 -152 121 q-168 0 -374.5 -122t-274.5 -272q-37 -80 -37 -129q0 -63 72 -63q16 0 48 6t46 6q16 0 16 -10q0 -25 -57 -41q-43 -10 -78 -10q-129 0 -129 106zM1037 1155q0 31 60 74t93 43q4 0 8 -2v2v-5q0 8 -30 -34q-16 -41 -33 -82q-25 -55 -55 -56q-14 0 -28.5 21.5t-14.5 38.5z M1284 1155q0 31 60.5 74t93.5 43q4 0 8 -2v2v-5q0 8 -31 -34l-32 -82q-25 -55 -56 -56q-14 0 -28.5 21.5t-14.5 38.5z" />
<glyph unicode="&#xdd;" horiz-adv-x="1538" d="M-25 483q0 43 25 101q84 178 323.5 322.5t440.5 144.5q193 0 192 -156q0 -78 -57 -197q-63 -131 -127 -262q-80 -180 -80 -268q0 -68 53 -68q115 0 306 236q139 172 299 422q2 23 8 67q6 29 48 70t71 41q16 0 16 -18v-9q-53 -129 -86 -377q-39 -279 -70 -380q14 2 31 2 q172 -1 172 -56q0 -14 -16 -14q-8 0 -15 2q-57 25 -106 25q-33 0 -76 -9q-96 -330 -340 -565q-270 -260 -594 -260q-88 0 -153 39q-78 47 -78 129q0 242 456 465q324 160 670 233q25 94 37 271q10 139 21 278q-18 -33 -158 -225q-129 -180 -184 -246q-145 -166 -236 -166 q-135 0 -135 125q0 119 131 376t131 333q0 129 -160 129q-170 0 -377.5 -124t-277.5 -276q-37 -80 -37 -131q0 -72 78 -71q18 0 50 7t46 7q6 0 6 -4q0 -20 -55 -35q-43 -10 -74 -10q-119 0 -119 102zM207 -565q0 -115 180 -115q156 0 293 62q193 84 364 296q167 205 228 418 q-281 -51 -629 -227q-436 -223 -436 -434zM1128 981q0 6 7 12q76 57 217 168q23 16 34 17q19 0 19 -25t-16 -39q-23 -18 -128.5 -81.5t-117.5 -63.5q-14 0 -15 12z" />
<glyph unicode="&#xde;" horiz-adv-x="946" d="M-70 903q0 23 31 48.5t55 33.5q219 72 523 72q53 0 106 -2q51 94 86 155q12 25 43 72q29 39 100 39q20 0 21 -8l-4 -8q-72 -104 -160 -256q188 -18 279 -54q161 -59 161 -194q0 -119 -118 -221q-98 -84 -227.5 -126t-252.5 -42q-92 0 -190 12q-211 -395 -211 -522 q0 -6 2 -16.5t2 -14.5q0 -20 -14 -21q-27 0 -27 48q0 139 189 536q-172 31 -172 92q0 35 49 62q41 20 82 20q16 0 16 -8q0 -6 -50 -20.5t-50 -40.5q0 -43 137 -78q82 174 289 555q-342 0 -668 -117q-10 -4 -16 -4q-10 0 -11 8zM395 449q51 -8 103 -9q94 0 192 25 q147 39 260 119q148 104 148 231q0 119 -144 166q-80 25 -243 33q-156 -270 -316 -565z" />
<glyph unicode="&#xdf;" horiz-adv-x="1189" d="M-289 -322q6 16 25 17q186 0 391 389q84 158 240 565q250 653 497 654q125 0 197 -86t72 -213q0 -166 -109 -276t-274 -114q123 -20 204 -77q100 -70 101 -181q0 -92 -74 -182q-113 -141 -342 -211q-184 -57 -406 -59h-28q-74 0 -99 12q-12 8 -12 16q-186 -276 -340 -276 q-35 0 -43 22zM109 -43l18 6q84 -12 129 -12q190 0 358 57q199 68 301 195q68 84 68 164q0 205 -365 204q-70 0 -69 29q0 14 8 33q33 -8 72 -8q305 0 418 209q40 75 40 159q0 96 -55 164t-151 68q-178 0 -303 -277q-2 -2 -119 -284q-197 -469 -350 -707z" />
<glyph unicode="&#xe0;" horiz-adv-x="589" d="M33 59q0 106 102.5 257t198.5 184q35 14 67 14q74 0 107 -51q6 -10 6 -14q0 -2 -14.5 -6.5t-20.5 -14.5q-49 -80 -49 -240q0 -147 64 -147q45 0 128 99.5t89 99.5q6 -1 6 -11t-12 -28q-90 -145 -170 -187q-37 -18 -74 -18q-125 0 -125 176q0 29 4 61q-137 -244 -244 -243 q-63 0 -63 69zM102 94q0 -43 29 -43q45 0 117 94q100 127 168 299q-8 2 -19 2q-82 0 -170 -104q-125 -152 -125 -248zM236 760q0 20 14 20t106 -69q86 -66 105 -84q4 -5 4 -11q0 -10 -10 -10q-12 0 -98.5 52.5t-103.5 66.5t-17 35z" />
<glyph unicode="&#xe1;" horiz-adv-x="589" d="M33 59q0 106 102.5 257t198.5 184q35 14 67 14q74 0 107 -51q6 -10 6 -14q0 -2 -14.5 -6.5t-20.5 -14.5q-49 -80 -49 -240q0 -147 64 -147q45 0 128 99.5t89 99.5q6 -1 6 -11t-12 -28q-90 -145 -170 -187q-37 -18 -74 -18q-125 0 -125 176q0 29 4 61q-137 -244 -244 -243 q-63 0 -63 69zM102 94q0 -43 29 -43q45 0 117 94q100 127 168 299q-8 2 -19 2q-82 0 -170 -104q-125 -152 -125 -248zM283 578q0 6 8 12q74 57 215 168q23 16 35 16q18 1 18 -24t-16 -39q-23 -18 -128.5 -83t-117.5 -65q-14 0 -14 15z" />
<glyph unicode="&#xe2;" horiz-adv-x="589" d="M33 59q0 106 102.5 257t198.5 184q35 14 67 14q74 0 107 -51q6 -10 6 -14q0 -2 -14.5 -6.5t-20.5 -14.5q-49 -80 -49 -240q0 -147 64 -147q45 0 128 99.5t89 99.5q6 -1 6 -11t-12 -28q-90 -145 -170 -187q-37 -18 -74 -18q-125 0 -125 176q0 29 4 61q-137 -244 -244 -243 q-63 0 -63 69zM102 94q0 -43 29 -43q45 0 117 94q100 127 168 299q-8 2 -19 2q-82 0 -170 -104q-125 -152 -125 -248zM244 588q0 10 70.5 69.5t86.5 61.5l7 -2q47 -51 145 -125l6 -12l-4 -9q-25 2 -87 41t-83 62q-119 -98 -133 -99q-8 0 -8 13z" />
<glyph unicode="&#xe3;" horiz-adv-x="589" d="M33 59q0 106 102.5 257t198.5 184q35 14 67 14q74 0 107 -51q6 -10 6 -14q0 -2 -14.5 -6.5t-20.5 -14.5q-49 -80 -49 -240q0 -147 64 -147q45 0 128 99.5t89 99.5q6 -1 6 -11t-12 -28q-90 -145 -170 -187q-37 -18 -74 -18q-125 0 -125 176q0 29 4 61q-137 -244 -244 -243 q-63 0 -63 69zM102 94q0 -43 29 -43q45 0 117 94q100 127 168 299q-8 2 -19 2q-82 0 -170 -104q-125 -152 -125 -248zM256 580q0 23 63 59q27 14 56 14q25 0 71 -15t70 -15q37 0 62 30q10 2 10 -4q0 -23 -60 -61q-18 -12 -41 -13q-27 0 -74.5 18.5t-72.5 18.5t-50.5 -18.5 t-31.5 -18.5q-2 2 -2 5z" />
<glyph unicode="&#xe4;" horiz-adv-x="589" d="M33 59q0 106 102.5 257t198.5 184q35 14 67 14q74 0 107 -51q6 -10 6 -14q0 -2 -14.5 -6.5t-20.5 -14.5q-49 -80 -49 -240q0 -147 64 -147q45 0 128 99.5t89 99.5q6 -1 6 -11t-12 -28q-90 -145 -170 -187q-37 -18 -74 -18q-125 0 -125 176q0 29 4 61q-137 -244 -244 -243 q-63 0 -63 69zM102 94q0 -43 29 -43q45 0 117 94q100 127 168 299q-8 2 -19 2q-82 0 -170 -104q-125 -152 -125 -248zM229 629q0 25 49.5 60.5t75.5 35.5q2 0 6 -2v-2q-10 -12 -24 -29q-14 -33 -27 -65q-20 -47 -45 -47q-12 0 -23.5 18t-11.5 31zM430 629q0 25 50 60.5 t75 35.5q2 0 6 -2v-2q-10 -12 -22 -29q-14 -33 -29 -65q-18 -47 -45 -47q-12 0 -23.5 18t-11.5 31z" />
<glyph unicode="&#xe5;" horiz-adv-x="589" d="M27 49q0 86 80.5 207t158.5 156q-16 16 -16 43q0 43 40 97t83 54q61 0 61 -74q0 -70 -55 -112q49 -20 49 -45q0 -4 -11 -6t-18 -13q-41 -68 -41 -198q0 -123 54 -123q37 0 105.5 82t74.5 82t6 -6q0 -27 -61.5 -96.5t-91 -85t-60.5 -15.5q-106 0 -106 147q0 23 4 52 q-113 -203 -203 -203q-53 0 -53 57zM84 78q0 -35 27 -35q53 0 137 135q61 99 98 193q-6 2 -16 2q-72 0 -159 -108.5t-87 -186.5zM297 473q0 -43 29 -43q33 0 53 32.5t20 65.5q0 51 -30 52q-29 0 -50.5 -38t-21.5 -69z" />
<glyph unicode="&#xe6;" horiz-adv-x="577" d="M27 49q0 88 85 213t167 156q29 10 57 10q57 0 86 -41q53 47 108 47q43 0 43 -49q0 -53 -79 -127q-72 -68 -132 -90q-12 -41 -12 -72q0 -68 62 -67q119 0 245 145q14 16 25 16q6 0 6 -6q0 -4 -2 -10q-41 -66 -127 -123q-92 -59 -166 -59q-49 0 -69 22q-16 31 -35 60 q-12 61 -6 121q-113 -203 -203 -203q-53 0 -53 57zM84 78q0 -35 27 -35q53 0 137 137q61 99 98 191q-6 2 -16 2q-72 0 -159 -109.5t-87 -185.5zM373 203q47 20 94 67q55 54 55 97q0 18 -20 18q-27 0 -76 -78q-41 -66 -53 -104z" />
<glyph unicode="&#xe7;" horiz-adv-x="376" d="M10 -356q0 8 13 12q49 6 97 16.5t48 75.5q0 20 -36 69.5t-36 76.5q0 66 45 98q-80 25 -80 129q0 82 93.5 183.5t175.5 101.5q53 0 53 -44q0 -18 -24.5 -59t-39.5 -41q-6 0 -6 8q0 6 5.5 21.5t5.5 23.5q0 37 -43 37q-61 0 -113 -82q-45 -72 -45 -137q0 -106 92 -106 q117 0 244 159q16 20 28 21q7 0 7 -6q0 -25 -78 -95q-61 -57 -99 -81q-68 -45 -141 -41q-31 -23 -31 -68q0 -16 39 -65.5t39 -88.5q0 -63 -71 -102q-59 -31 -129 -31q-12 0 -13 15z" />
<glyph unicode="&#xe8;" horiz-adv-x="415" d="M53 152q0 106 92 233q98 135 203 135q20 0 35.5 -18.5t15.5 -38.5q0 -63 -96 -154q-86 -80 -158 -106q-14 -51 -14 -86q0 -84 76 -84q72 0 162 59q78 51 133 117q14 20 28 20q9 0 9 -8q0 -4 -4 -12q-51 -80 -154 -148q-109 -72 -199 -71q-129 0 -129 162zM154 754 q0 20 14 20q12 0 31 -14q61 -43 178 -139q6 -7 6 -11q0 -10 -10 -10q-8 0 -99.5 54.5t-105.5 65.5t-14 34zM160 244q53 23 110 80q68 65 68 114q0 25 -25 25q-31 0 -90 -94q-51 -80 -63 -125z" />
<glyph unicode="&#xe9;" horiz-adv-x="415" d="M53 152q0 106 92 233q98 135 203 135q20 0 35.5 -18.5t15.5 -38.5q0 -63 -96 -154q-86 -80 -158 -106q-14 -51 -14 -86q0 -84 76 -84q72 0 162 59q78 51 133 117q14 20 28 20q9 0 9 -8q0 -4 -4 -12q-51 -80 -154 -148q-109 -72 -199 -71q-129 0 -129 162zM160 244 q53 23 110 80q68 65 68 114q0 25 -25 25q-31 0 -90 -94q-51 -80 -63 -125zM279 588q0 6 6 12q76 57 217 168q23 16 35 16q18 1 18 -24t-16 -39q-23 -18 -128.5 -82t-117.5 -64q-14 0 -14 13z" />
<glyph unicode="&#xea;" horiz-adv-x="415" d="M53 152q0 106 92 233q98 135 203 135q20 0 35.5 -18.5t15.5 -38.5q0 -63 -96 -154q-86 -80 -158 -106q-14 -51 -14 -86q0 -84 76 -84q72 0 162 59q78 51 133 117q14 20 28 20q9 0 9 -8q0 -4 -4 -12q-51 -80 -154 -148q-109 -72 -199 -71q-129 0 -129 162zM160 244 q53 23 110 80q68 65 68 114q0 25 -25 25q-31 0 -90 -94q-51 -80 -63 -125zM166 582q0 10 71.5 69.5t88.5 61.5l6 -2q45 -51 145 -125l6 -13l-6 -8q-23 0 -85 40t-83 63q-119 -98 -133 -99q-10 0 -10 13z" />
<glyph unicode="&#xeb;" horiz-adv-x="415" d="M53 152q0 106 92 233q98 135 203 135q20 0 35.5 -18.5t15.5 -38.5q0 -63 -96 -154q-86 -80 -158 -106q-14 -51 -14 -86q0 -84 76 -84q72 0 162 59q78 51 133 117q14 20 28 20q9 0 9 -8q0 -4 -4 -12q-51 -80 -154 -148q-109 -72 -199 -71q-129 0 -129 162zM160 244 q53 23 110 80q68 65 68 114q0 25 -25 25q-31 0 -90 -94q-51 -80 -63 -125zM229 629q0 25 49.5 60.5t75.5 35.5q2 0 6 -2v-2q-10 -12 -24 -29q-14 -33 -27 -65q-20 -47 -45 -47q-12 0 -23.5 18t-11.5 31zM430 629q0 25 50 60.5t75 35.5q2 0 6 -2v-2q-10 -12 -22 -29 q-14 -33 -29 -65q-18 -47 -45 -47q-12 0 -23.5 18t-11.5 31z" />
<glyph unicode="&#xec;" horiz-adv-x="366" d="M45 63q0 49 43 162q47 121 78 121q43 0 43 -43q0 2 -46 -88t-46 -152q0 -61 43 -61q70 0 162 103.5t84 103.5q8 0 8 -12t-11 -27q-158 -207 -264 -207q-94 0 -94 100zM53 641q0 20 15 21q14 0 104 -70q84 -63 107 -84q4 -6 4 -10q0 -10 -11 -11q-12 0 -99 52.5t-107 68.5 q-12 10 -13 33z" />
<glyph unicode="&#xed;" horiz-adv-x="366" d="M45 63q0 49 43 162q47 121 78 121q43 0 43 -43q0 2 -46 -88t-46 -152q0 -61 43 -61q70 0 162 103.5t84 103.5q8 0 8 -12t-11 -27q-158 -207 -264 -207q-94 0 -94 100zM203 467q0 6 6 12q76 57 217 170q20 16 35 17q18 0 18 -27q0 -25 -16 -37q-25 -20 -127 -82 q-109 -63 -119 -63q-14 0 -14 10z" />
<glyph unicode="&#xee;" horiz-adv-x="366" d="M45 63q0 49 43 162q47 121 78 121q43 0 43 -43q0 2 -46 -88t-46 -152q0 -61 43 -61q70 0 162 103.5t84 103.5q8 0 8 -12t-11 -27q-158 -207 -264 -207q-94 0 -94 100zM96 485q0 12 71 71.5t87 61.5l8 -4q45 -49 146 -125l6 -10l-6 -10q-23 2 -86.5 42t-83.5 60 q-119 -96 -134 -96q-8 0 -8 10z" />
<glyph unicode="&#xef;" horiz-adv-x="366" d="M45 63q0 49 43 162q47 121 78 121q43 0 43 -43q0 2 -46 -88t-46 -152q0 -61 43 -61q70 0 162 103.5t84 103.5q8 0 8 -12t-11 -27q-158 -207 -264 -207q-94 0 -94 100zM106 541q0 25 50.5 60.5t76.5 35.5q2 0 5 -2q2 0 2 -2q-10 -12 -25 -29q-14 -33 -29 -67 q-18 -45 -45 -45q-10 0 -22.5 18t-12.5 31zM309 541q0 25 49.5 60.5t75.5 35.5q2 0 6 -2v-2q-10 -12 -24 -29q-14 -33 -29 -67q-18 -45 -43 -45q-12 0 -23.5 18t-11.5 31z" />
<glyph unicode="&#xf0;" horiz-adv-x="391" d="M39 39q0 39 22.5 98.5t61.5 122.5q55 88 94 88q25 0 37 -16q2 -18 2 -17q0 -6 -18 -6q-37 0 -88 -114q-47 -106 -48 -150q0 -33 25 -33q45 0 94 99q37 72 53 139q31 127 31 250v18q-111 -68 -117 -67q-10 0 -10 14q0 20 12 31q31 23 113 61q-12 166 -80 166q-37 0 -37 16 q0 27 64 27q88 0 108 -186q66 27 76 26q12 0 12 -12q0 -8 -8 -12q-27 -8 -78 -33v-29q0 -82 -22 -182q-29 -117 -80 -219q-76 -147 -158 -148q-61 0 -61 68z" />
<glyph unicode="&#xf1;" horiz-adv-x="569" d="M14 18q0 10 4 17q43 104 91 297q6 33 20 96q6 14 28.5 28.5t41.5 14.5q14 0 14 -12q0 -20 -96 -312q25 33 153 175q43 49 127 139q16 14 33 14q47 0 47 -47q0 -10 -8 -25q-115 -188 -115 -299q0 -78 74 -77q57 0 123 59q43 37 96 111q43 59 49 59t6 -12q0 -14 -12 -35 q-139 -231 -289 -232q-117 0 -116 148q0 131 59 231q-143 -129 -293 -356q-12 -18 -18 -18q-18 0 -19 36zM207 555q0 25 63 59q27 14 56 15q25 0 70.5 -15.5t70.5 -15.5q37 0 61 31q11 2 11 -4q0 -23 -60 -62q-18 -12 -41 -12q-27 0 -75 19.5t-72 19.5q-25 0 -50.5 -19.5 t-31.5 -19.5q-2 2 -2 4z" />
<glyph unicode="&#xf2;" horiz-adv-x="468" d="M49 49q0 117 103 275q-4 23 -5 45q0 74 49.5 143.5t120.5 69.5q47 0 76 -56q23 -47 23 -98q0 -111 -86 -281q31 -18 69 -18q68 0 127.5 53.5t55.5 53.5q14 -1 14 -15q0 -4 -4 -8q-29 -49 -87.5 -84t-113.5 -35q-41 0 -76 21q-94 -150 -194 -150q-72 0 -72 84zM123 55 q0 -41 31 -41q29 0 75 49q42 39 58 74q-68 45 -103 105q-61 -129 -61 -187zM158 809q0 23 18 22q12 0 100.5 -67.5t106.5 -85.5q6 -6 6 -12q0 -10 -12 -11q-10 0 -98.5 53.5t-106.5 69.5q-14 10 -14 31zM195 379q33 39 65 39q31 0 45 -21v-10q2 -6 2 -10q0 -6 -20 -6 q-37 0 -78 -78q27 -78 94 -127q51 129 51 211q0 45 -14 92q-20 66 -53 66q-47 0 -74 -58q-20 -45 -18 -98z" />
<glyph unicode="&#xf3;" horiz-adv-x="468" d="M49 49q0 117 103 275q-4 23 -5 45q0 74 49.5 143.5t120.5 69.5q47 0 76 -56q23 -47 23 -98q0 -111 -86 -281q31 -18 69 -18q68 0 127.5 53.5t55.5 53.5q14 -1 14 -15q0 -4 -4 -8q-29 -49 -87.5 -84t-113.5 -35q-41 0 -76 21q-94 -150 -194 -150q-72 0 -72 84zM123 55 q0 -41 31 -41q29 0 75 49q42 39 58 74q-68 45 -103 105q-61 -129 -61 -187zM195 379q33 39 65 39q31 0 45 -21v-10q2 -6 2 -10q0 -6 -20 -6q-37 0 -78 -78q27 -78 94 -127q51 129 51 211q0 45 -14 92q-20 66 -53 66q-47 0 -74 -58q-20 -45 -18 -98zM311 641q0 6 6 12 q76 57 218 168q20 16 32 17q21 0 21 -25t-17 -39q-23 -18 -129 -82.5t-116 -64.5q-14 0 -15 14z" />
<glyph unicode="&#xf4;" horiz-adv-x="468" d="M49 49q0 117 103 275q-4 23 -5 45q0 74 49.5 143.5t120.5 69.5q47 0 76 -56q23 -47 23 -98q0 -111 -86 -281q31 -18 69 -18q68 0 127.5 53.5t55.5 53.5q14 -1 14 -15q0 -4 -4 -8q-29 -49 -87.5 -84t-113.5 -35q-41 0 -76 21q-94 -150 -194 -150q-72 0 -72 84zM123 55 q0 -41 31 -41q29 0 75 49q42 39 58 74q-68 45 -103 105q-61 -129 -61 -187zM188 627q0 12 71 70.5t87 60.5l6 -2q45 -51 146 -125l6 -13l-4 -8q-25 2 -87.5 41t-82.5 62q-119 -98 -133 -99q-8 0 -9 13zM195 379q33 39 65 39q31 0 45 -21v-10q2 -6 2 -10q0 -6 -20 -6 q-37 0 -78 -78q27 -78 94 -127q51 129 51 211q0 45 -14 92q-20 66 -53 66q-47 0 -74 -58q-20 -45 -18 -98z" />
<glyph unicode="&#xf5;" horiz-adv-x="468" d="M49 49q0 117 103 275q-4 23 -5 45q0 74 49.5 143.5t120.5 69.5q47 0 76 -56q23 -47 23 -98q0 -111 -86 -281q31 -18 69 -18q68 0 127.5 53.5t55.5 53.5q14 -1 14 -15q0 -4 -4 -8q-29 -49 -87.5 -84t-113.5 -35q-41 0 -76 21q-94 -150 -194 -150q-72 0 -72 84zM123 55 q0 -41 31 -41q29 0 75 49q42 39 58 74q-68 45 -103 105q-61 -129 -61 -187zM195 379q33 39 65 39q31 0 45 -21v-10q2 -6 2 -10q0 -6 -20 -6q-37 0 -78 -78q27 -78 94 -127q51 129 51 211q0 45 -14 92q-20 66 -53 66q-47 0 -74 -58q-20 -45 -18 -98zM213 651q0 25 63 60 q27 14 56 14q25 0 71 -15.5t70 -15.5q37 0 62 31q10 2 10 -4q0 -23 -60 -62q-18 -12 -41 -12q-27 0 -74.5 19.5t-72.5 19.5t-50.5 -19.5t-31.5 -19.5q-2 2 -2 4z" />
<glyph unicode="&#xf6;" horiz-adv-x="468" d="M49 49q0 117 103 275q-4 23 -5 45q0 74 49.5 143.5t120.5 69.5q47 0 76 -56q23 -47 23 -98q0 -111 -86 -281q31 -18 69 -18q68 0 127.5 53.5t55.5 53.5q14 -1 14 -15q0 -4 -4 -8q-29 -49 -87.5 -84t-113.5 -35q-41 0 -76 21q-94 -150 -194 -150q-72 0 -72 84zM123 55 q0 -41 31 -41q29 0 75 49q42 39 58 74q-68 45 -103 105q-61 -129 -61 -187zM195 379q33 39 65 39q31 0 45 -21v-10q2 -6 2 -10q0 -6 -20 -6q-37 0 -78 -78q27 -78 94 -127q51 129 51 211q0 45 -14 92q-20 66 -53 66q-47 0 -74 -58q-20 -45 -18 -98zM215 668q0 25 50 60.5 t77 35.5q2 0 4 -2v2q2 -2 2 -4q-10 -12 -24 -29q-14 -33 -29 -65q-18 -45 -43 -45q-12 0 -24.5 17t-12.5 30zM418 668q0 25 49 60.5t76 35.5q2 0 6 -2v2v-4q-10 -12 -25 -29q-14 -33 -26 -65q-20 -45 -45 -45q-12 0 -23.5 17t-11.5 30z" />
<glyph unicode="&#xf7;" d="M39 221q0 29 72 51q33 12 92 13q72 0 190 -17q53 -8 53 -20q0 -14 -53 -17q-37 -2 -110 -6q-61 -8 -193 -18h-10q-41 -2 -41 14zM186 109q0 49 54 49q51 0 51 -49t-51 -50q-53 0 -54 50zM205 393q0 49 51 49t51 -49t-51 -49t-51 49z" />
<glyph unicode="&#xf8;" horiz-adv-x="391" d="M-8 -129q0 25 57 127q-8 16 -8 43q0 96 86 229q-4 18 -4 37q0 61 41 119.5t100 58.5q61 0 80 -96q111 123 135 123q25 0 25 -14q0 4 -158 -162q-4 -80 -72 -213q27 -16 58 -17q55 0 106 44.5t47 44.5q10 0 11 -11l-2 -8q-16 -35 -70.5 -66.5t-97.5 -31.5q-35 0 -64 18 q-78 -125 -162 -125q-23 0 -37 11q-16 -37 -51 -113q-4 -6 -10 -6q-10 0 -10 8zM98 78q21 30 72 98q-8 16 -25 47q-49 -59 -47 -145zM102 43q0 -31 25 -31t62 37t51 66q-31 18 -54 43q-49 -61 -84 -115zM162 315q29 35 59 35q27 0 27 -14q0 -6 -17 -12q-31 -12 -59 -66 q6 -18 21 -53q49 66 102 127q-10 113 -57 112q-39 0 -60 -47q-16 -37 -16 -82zM207 182q20 -25 47 -45q33 87 39 142q-45 -49 -86 -97z" />
<glyph unicode="&#xf9;" horiz-adv-x="595" d="M41 133q0 66 43 158q47 106 102 106q31 0 31 -16q0 -2 -52 -93t-52 -141q0 -66 39 -65q66 0 235 299q14 29 43 80q14 16 31 16q18 0 33.5 -15.5t15.5 -35.5q0 2 -72.5 -137t-72.5 -215q0 -72 67 -72q57 0 131 66q49 43 111 122q51 66 55 66q6 0 6 -12q0 -14 -12 -35 q-57 -94 -133 -164q-98 -90 -184 -90q-115 0 -115 143q0 33 31 129q-72 -104 -93 -129q-68 -80 -120 -80q-68 0 -68 115zM178 719q0 23 17 22q10 0 28 -14q66 -45 180 -139q5 -7 5 -13q0 -10 -11 -10q-8 0 -97 53.5t-110 69.5q-12 10 -12 31z" />
<glyph unicode="&#xfa;" horiz-adv-x="595" d="M41 133q0 66 43 158q47 106 102 106q31 0 31 -16q0 -2 -52 -93t-52 -141q0 -66 39 -65q66 0 235 299q14 29 43 80q14 16 31 16q18 0 33.5 -15.5t15.5 -35.5q0 2 -72.5 -137t-72.5 -215q0 -72 67 -72q57 0 131 66q49 43 111 122q51 66 55 66q6 0 6 -12q0 -14 -12 -35 q-57 -94 -133 -164q-98 -90 -184 -90q-115 0 -115 143q0 33 31 129q-72 -104 -93 -129q-68 -80 -120 -80q-68 0 -68 115zM281 494q0 6 6 12q76 57 215 168q23 18 35 18q20 1 20 -26q0 -25 -19.5 -41.5t-126 -80t-118.5 -63.5t-12 13z" />
<glyph unicode="&#xfb;" horiz-adv-x="595" d="M41 133q0 66 43 158q47 106 102 106q31 0 31 -16q0 -2 -52 -93t-52 -141q0 -66 39 -65q66 0 235 299q14 29 43 80q14 16 31 16q18 0 33.5 -15.5t15.5 -35.5q0 2 -72.5 -137t-72.5 -215q0 -72 67 -72q57 0 131 66q49 43 111 122q51 66 55 66q6 0 6 -12q0 -14 -12 -35 q-57 -94 -133 -164q-98 -90 -184 -90q-115 0 -115 143q0 33 31 129q-72 -104 -93 -129q-68 -80 -120 -80q-68 0 -68 115zM254 563q0 10 71.5 69.5t86.5 61.5l8 -2q45 -51 145 -127l6 -10l-6 -8q-23 0 -85 40t-85 62q-117 -98 -133 -98q-8 0 -8 12z" />
<glyph unicode="&#xfc;" horiz-adv-x="595" d="M41 133q0 66 43 158q47 106 102 106q31 0 31 -16q0 -2 -52 -93t-52 -141q0 -66 39 -65q66 0 235 299q14 29 43 80q14 16 31 16q18 0 33.5 -15.5t15.5 -35.5q0 2 -72.5 -137t-72.5 -215q0 -72 67 -72q57 0 131 66q49 43 111 122q51 66 55 66q6 0 6 -12q0 -14 -12 -35 q-57 -94 -133 -164q-98 -90 -184 -90q-115 0 -115 143q0 33 31 129q-72 -104 -93 -129q-68 -80 -120 -80q-68 0 -68 115zM248 610q0 25 49 61t76 36q2 0 6 -2v-3q-10 -12 -25 -28q-14 -33 -26 -68q-20 -45 -45 -45q-12 0 -23.5 18.5t-11.5 30.5zM449 610q0 25 49 61t75 36 q2 0 7 -2v-3q-10 -12 -25 -28q-12 -33 -27 -68q-20 -45 -45 -45q-12 0 -23 18.5t-11 30.5z" />
<glyph unicode="&#xfd;" d="M-401 -524q0 180 260 348q219 141 426 174q25 106 55 313q-57 -137 -164 -250q-45 -47 -84 -47q-55 0 -55 97q0 55 35 133q41 88 86 88q27 0 26 -15q0 -2 -44 -77.5t-44 -116.5q0 -55 33 -55q51 0 229 344q4 25 43 24q31 0 31 -14q0 -20 -22 -143q-27 -145 -56 -279h6 q91 2 91 -39q0 -10 -7 -10q2 0 -17 8t-46 8h-33q-66 -256 -164 -399q-182 -270 -393 -270q-82 0 -137 48t-55 130zM-352 -530q0 -68 42 -108t109 -40q197 0 353 268q90 154 131 377q-113 -18 -267.5 -96t-238.5 -158q-129 -123 -129 -243zM207 477q0 6 6 12q76 57 217 168 q23 16 35 17q18 0 18 -25t-16 -39q-23 -18 -128.5 -81.5t-117.5 -63.5q-14 0 -14 12z" />
<glyph unicode="&#xfe;" horiz-adv-x="557" d="M-209 -473q0 84 154 311q111 152 221 301q0 12 18 142q16 100 45 305q16 123 17 164q0 10 -6.5 16t-6.5 10q0 12 56 12q33 0 33 -59q0 -98 -56 -379q-14 -53 -28 -145q49 88 108 160q88 109 148 108q53 0 53 -78q0 -100 -70.5 -233t-154.5 -187q74 0 159 64 q61 41 127 113q55 61 56 61q4 0 4 -10q0 -12 -9 -29q-45 -74 -147 -147q-111 -80 -184 -80h-46h-44q-10 0 -52 12q-53 -135 -145 -287q-125 -209 -207 -209q-43 0 -43 64zM-147 -461q0 -14 10 -14q74 0 205 244q35 68 75 225q-4 6 -4 16q1 21 11 37q-2 2 -5 2l-141 -196 q-35 -51 -90 -156q-61 -121 -61 -158zM215 49q16 -25 61 -65q74 33 138 163q59 121 59 211q0 53 -29 54q-61 0 -141 -152q-57 -111 -88 -211z" />
<glyph unicode="&#xff;" d="M-401 -524q0 180 260 348q219 141 426 174q25 106 55 313q-57 -137 -164 -250q-45 -47 -84 -47q-55 0 -55 97q0 55 35 133q41 88 86 88q27 0 26 -15q0 -2 -44 -77.5t-44 -116.5q0 -55 33 -55q51 0 229 344q4 25 43 24q31 0 31 -14q0 -20 -22 -143q-27 -145 -56 -279h6 q91 2 91 -39q0 -10 -7 -10q2 0 -17 8t-46 8h-33q-66 -256 -164 -399q-182 -270 -393 -270q-82 0 -137 48t-55 130zM-352 -530q0 -68 42 -108t109 -40q197 0 353 268q90 154 131 377q-113 -18 -267.5 -96t-238.5 -158q-129 -123 -129 -243zM106 625q0 31 60.5 73.5t93.5 42.5 q4 0 8 -2v2v-4q0 8 -30 -35q-16 -41 -33 -81q-25 -55 -55 -56q-14 0 -29 21.5t-15 38.5zM354 625q0 31 60.5 73.5t93.5 42.5q4 0 8 -2v2v-4q0 8 -31 -35q-16 -41 -32 -81q-25 -55 -56 -56q-14 0 -28.5 21.5t-14.5 38.5z" />
<glyph unicode="&#x152;" horiz-adv-x="1953" d="M8 494q0 172 170 321q135 115 330 186q211 78 426 78q184 0 313 -65q164 -82 178 -248q174 197 230 229q92 55 362 56q152 0 209 -23q23 -11 23 -27q0 -25 -47 -24q-37 18 -140 18q-264 0 -344 -49q-47 -29 -317 -330q6 -8 18 -8q55 0 166 8.5t168 8.5q137 0 137 -15 q0 -12 -59 -24q-41 -8 -260 -23q-162 -10 -254 -53q-39 -16 -126 -175t-87 -206q0 -117 182 -117t477 129q80 39 172 80q0 -2 -8 -16q-66 -90 -315 -182q-231 -82 -365 -82q-205 0 -205 163q0 33 7 66q-145 -98 -324 -160q-188 -66 -352 -65q-260 0 -260 207q0 68 32 147 q-137 61 -137 195zM39 496q0 -129 119 -166q90 164 280.5 340t358.5 245q88 37 147 39h4q16 2 17 -10q0 -14 -21 -18q-76 -12 -145 -49q-80 -43 -174 -119q-113 -86 -228 -205q-152 -158 -170 -242q43 -8 84 -8q178 0 359 162q23 20 43 43q35 35 39 35q4 -2 6 -8 q-80 -113 -201 -185q-129 -76 -260 -76q-45 0 -80 13q-39 -72 -39 -135q0 -86 66 -136q57 -45 147 -45q172 0 367 86q180 78 317 203q74 178 293 438q8 35 8 68q0 147 -135 221q-106 59 -266 60q-205 0 -440 -95q-178 -70 -312 -172q-184 -141 -184 -284z" />
<glyph unicode="&#x153;" horiz-adv-x="552" d="M41 41q0 96 86 229q-4 18 -4 37q0 61 41 119.5t100 58.5q45 0 68 -57q16 -45 14 -96q78 102 160 102q16 0 29.5 -16.5t13.5 -32.5q0 -53 -80 -127q-72 -68 -131 -90q-12 -41 -12 -72q0 -68 63 -67q123 0 246 145q12 16 24 16q7 0 7 -6q0 -4 -4 -10q-39 -66 -129.5 -124 t-163.5 -58q-96 0 -107 108q-84 -129 -162 -129q-59 0 -59 70zM102 45q0 -33 25 -33q31 0 80 58q41 47 55 84h-6q-74 -2 -102 47q-51 -106 -52 -156zM162 315q29 33 55 33q25 0 37 -16v-8q2 -4 2 -7q0 -8 -18 -8q-29 0 -64 -65q20 -57 70 -58q12 0 28 4q23 70 23 125 q0 37 -12 76q-16 53 -45 53q-39 0 -60 -47q-16 -37 -16 -82zM350 203q45 20 92 67q56 54 56 97q0 18 -21 18q-27 0 -74 -78q-43 -68 -53 -104z" />
<glyph unicode="&#x178;" horiz-adv-x="1538" d="M-25 483q0 43 25 101q84 178 323.5 322.5t440.5 144.5q193 0 192 -156q0 -78 -57 -197q-63 -131 -127 -262q-80 -180 -80 -268q0 -68 53 -68q115 0 306 236q139 172 299 422q2 23 8 67q6 29 48 70t71 41q16 0 16 -18v-9q-53 -129 -86 -377q-39 -279 -70 -380q14 2 31 2 q172 -1 172 -56q0 -14 -16 -14q-8 0 -15 2q-57 25 -106 25q-33 0 -76 -9q-96 -330 -340 -565q-270 -260 -594 -260q-88 0 -153 39q-78 47 -78 129q0 242 456 465q324 160 670 233q25 94 37 271q10 139 21 278q-18 -33 -158 -225q-129 -180 -184 -246q-145 -166 -236 -166 q-135 0 -135 125q0 119 131 376t131 333q0 129 -160 129q-170 0 -377.5 -124t-277.5 -276q-37 -80 -37 -131q0 -72 78 -71q18 0 50 7t46 7q6 0 6 -4q0 -20 -55 -35q-43 -10 -74 -10q-119 0 -119 102zM207 -565q0 -115 180 -115q156 0 293 62q193 84 364 296q167 205 228 418 q-281 -51 -629 -227q-436 -223 -436 -434zM1022 1143q0 31 60.5 75t93.5 44q4 0 6 -2q2 -1 2 -5q0 8 -31 -34q-16 -41 -33 -82q-25 -55 -55 -56q-14 0 -28.5 22.5t-14.5 37.5zM1270 1143q0 31 60.5 75t92.5 44q4 0 7 -2q2 -1 2 -5q0 8 -31 -34q-16 -41 -33 -82 q-25 -55 -55 -56q-14 0 -28.5 22.5t-14.5 37.5z" />
<glyph unicode="&#x2c6;" horiz-adv-x="757" d="M131 692q0 20 125 124t154 108l12 -4q80 -90 256 -222l10 -20l-8 -14q-43 2 -152.5 71.5t-146.5 108.5q-207 -172 -234 -172q-16 0 -16 20z" />
<glyph unicode="&#x2dc;" horiz-adv-x="557" d="M59 901q0 33 88 84q35 20 74 21q35 0 98.5 -21.5t96.5 -21.5q49 0 86 43q12 -1 12 -9q0 -31 -82 -86q-25 -16 -55 -16q-37 0 -103.5 27.5t-99.5 27.5q-35 0 -68.5 -26.5t-44.5 -26.5q-2 2 -2 4z" />
<glyph unicode="&#x2000;" horiz-adv-x="764" />
<glyph unicode="&#x2001;" horiz-adv-x="1528" />
<glyph unicode="&#x2002;" horiz-adv-x="764" />
<glyph unicode="&#x2003;" horiz-adv-x="1528" />
<glyph unicode="&#x2004;" horiz-adv-x="509" />
<glyph unicode="&#x2005;" horiz-adv-x="382" />
<glyph unicode="&#x2006;" horiz-adv-x="254" />
<glyph unicode="&#x2007;" horiz-adv-x="254" />
<glyph unicode="&#x2008;" horiz-adv-x="191" />
<glyph unicode="&#x2009;" horiz-adv-x="305" />
<glyph unicode="&#x200a;" horiz-adv-x="84" />
<glyph unicode="&#x2010;" d="M39 221q0 29 72 51q33 12 92 13q72 0 190 -17q53 -8 53 -20q0 -14 -53 -17q-37 -2 -110 -6q-61 -8 -193 -18h-10q-41 -2 -41 14z" />
<glyph unicode="&#x2011;" d="M39 221q0 29 72 51q33 12 92 13q72 0 190 -17q53 -8 53 -20q0 -14 -53 -17q-37 -2 -110 -6q-61 -8 -193 -18h-10q-41 -2 -41 14z" />
<glyph unicode="&#x2012;" d="M39 221q0 29 72 51q33 12 92 13q72 0 190 -17q53 -8 53 -20q0 -14 -53 -17q-37 -2 -110 -6q-61 -8 -193 -18h-10q-41 -2 -41 14z" />
<glyph unicode="&#x2013;" horiz-adv-x="737" d="M39 221q0 27 72 51q33 12 129 13q160 0 276 -17q53 -8 53 -20q0 -14 -53 -17q-141 -10 -426 -24h-10q-41 -2 -41 14z" />
<glyph unicode="&#x2014;" horiz-adv-x="907" d="M39 221q0 27 72 51q31 12 217 13q150 0 321 -9q57 0 170 -8q53 -8 53 -20q0 -14 -53 -17q-76 -2 -223 -6q-168 -8 -506 -18h-10q-41 -2 -41 14z" />
<glyph unicode="&#x2018;" horiz-adv-x="344" d="M131 473q0 41 74 129t110 88q4 0 4 -4q0 -6 -14 -22q-35 -39 -98 -140q35 0 35 -45q0 -59 -68 -59q-16 0 -29.5 17.5t-13.5 35.5z" />
<glyph unicode="&#x2019;" horiz-adv-x="344" d="M143 426q0 8 15 25q23 27 100 139q-37 0 -37 45q0 55 70 55q41 0 41 -51q0 -41 -74 -129t-111 -88q-4 0 -4 4z" />
<glyph unicode="&#x201a;" horiz-adv-x="176" d="M111 145q43 6 61 7q4 0 6 -2v-5q0 -27 -15.5 -121t-23.5 -110q-4 -8 -12 -8q-6 0 -6 16q0 139 -10 223z" />
<glyph unicode="&#x201c;" horiz-adv-x="530" d="M131 860q0 41 74 129t110 88q4 0 4 -4q0 -8 -14 -24q-25 -27 -100 -140q37 0 37 -45q0 -55 -70 -55q-41 0 -41 51zM291 860q0 41 73.5 129t110.5 88q4 0 4 -4q0 -8 -14 -24q-25 -27 -100 -140q37 0 36 -45q0 -55 -69 -55q-41 0 -41 51z" />
<glyph unicode="&#x201d;" horiz-adv-x="530" d="M143 801q0 8 15 22q27 31 100 144l-4 -2q-33 0 -33 45q0 25 21.5 41t48.5 16q14 0 27.5 -17.5t13.5 -33.5q0 -41 -74 -130t-111 -89q-4 2 -4 4zM303 801q0 6 14 22q27 31 101 144l-4 -2q-33 0 -33 45q0 57 70 57q14 0 27.5 -17.5t13.5 -33.5q0 -43 -74 -131t-113 -88 q-2 0 -2 4z" />
<glyph unicode="&#x201e;" horiz-adv-x="319" d="M111 145q43 6 61 7q4 0 6 -2v-5q0 -27 -15.5 -121t-23.5 -110q-4 -8 -12 -8q-6 0 -6 16q0 139 -10 223zM252 145q43 6 61 7q4 0 6 -2v-5q0 -27 -15 -121t-23 -110q-4 -8 -13 -8q-6 0 -6 16q0 139 -10 223z" />
<glyph unicode="&#x2022;" horiz-adv-x="1099" d="M111 485q0 182 130 312.5t314 130.5q182 0 312 -130.5t130 -312.5q0 -184 -130 -314t-312 -130q-184 0 -314 130t-130 314z" />
<glyph unicode="&#x2026;" horiz-adv-x="1019" d="M223 16q0 49 56 50q51 -1 51 -50t-51 -49q-55 0 -56 49zM561 16q0 49 55 50q52 -1 52 -50t-52 -49q-55 0 -55 49zM850 16q0 49 53 50q53 -1 53 -50t-53 -49t-53 49z" />
<glyph unicode="&#x202f;" horiz-adv-x="305" />
<glyph unicode="&#x2039;" horiz-adv-x="571" d="M174 524q0 23 107 176q94 133 135 183q18 23 39 22q14 0 14 -12q0 -31 -203 -313q199 -252 199 -275q0 -29 -21 -26l-16 8q-45 61 -117 121q-66 53 -131 104q-6 4 -6 12z" />
<glyph unicode="&#x203a;" horiz-adv-x="540" d="M174 276q0 31 203 314q-201 254 -201 274q0 29 23 27l16 -8q45 -61 113.5 -117.5t134.5 -108.5q6 -4 6 -12q0 -23 -109 -176q-92 -133 -135 -182q-18 -23 -39 -23q-12 0 -12 12z" />
<glyph unicode="&#x205f;" horiz-adv-x="382" />
<glyph unicode="&#x2122;" horiz-adv-x="1343" d="M55 1255q16 27 277 45q201 16 313 17q45 -1 45 -17q0 -25 -141 -40q-152 -16 -166 -43q-35 -63 -78 -197q-31 -102 -63 -205q-16 -53 -54 -137q-12 -18 -43 -19q-37 0 -36 27q0 29 77 215q49 117 101 234q25 70 24 86q0 18 -57 18q-25 0 -74 -5t-74 -5q-43 0 -51 26z M520 686q0 8 78 203q82 207 92 235q4 51 10 101q10 72 50 71q14 0 26 -45q20 -119 39 -239q39 -176 109 -176q61 0 203.5 221t146.5 221q24 0 24 -55q0 -20 -10 -70q-14 -57 -16 -76q-6 -162 -29 -346q-20 -35 -72 -35q-23 0 -22 19q0 4 2 16q20 113 66 338 q-215 -276 -314 -276q-106 0 -182 276q-23 -47 -59 -188q-33 -127 -64 -176q-20 -33 -55 -33q-23 0 -23 14z" />
<glyph unicode="&#x25fc;" horiz-adv-x="450" d="M0 0v451h451v-451h-451z" />
</font>
</defs>
</svg>
